<?xml version="1.0" encoding="UTF-8"?>
<svg id="Calque_2" data-name="Calque 2" xmlns="http://www.w3.org/2000/svg" viewBox="0 0 549.84 79.18">
  <defs>
    <style>
      .cls-1 {
        fill: #42622c;
        stroke-width: 0px;
      }
    </style>
  </defs>
  <g id="Calque_1-2" data-name="Calque 1">
    <g>
      <g>
        <path class="cls-1" d="M128.45,54.86h-14.6c-1.08,4.39-1.55,7.84-2.03,10.88h-4.87c2.37-4.8,7.16-16.69,12.16-29.46l7.37-17.77h.95l20.34,47.23h-14.73l-4.59-10.88ZM128.05,53.92l-7.43-17.64h-.41c-3.04,7.23-4.87,12.91-6.08,17.64h13.92Z"/>
        <path class="cls-1" d="M209.89,43.11v22.64h-14.06v-24.26c0-3.45-.74-5.68-4.05-5.68-2.77,0-4.26,2.23-4.26,5.68v24.26h-14.06v-24.26c0-3.45-.74-5.68-4.05-5.68-2.77,0-4.26,2.23-4.26,5.47v24.46h-14.06V30.6h1.69l11.83,8.92c.41-5,4.8-8.58,11.35-8.58,6.22,0,10.07,3.51,11.22,7.77.68-5.07,4.86-7.77,11.15-7.77,7.5,0,11.56,3.78,11.56,12.16Z"/>
        <path class="cls-1" d="M216.45,20.26c0-4.12,3.38-7.5,7.57-7.5s7.5,3.38,7.5,7.5-3.38,7.57-7.5,7.57-7.57-3.38-7.57-7.57ZM216.99,31.96h14.06v33.79h-14.06V31.96Z"/>
        <path class="cls-1" d="M237.67,64.53v-5.81c4.39,5,7.64,7.1,11.22,7.1,3.31,0,5.95-1.76,5.95-4.46,0-3.92-3.99-5.2-7.97-6.96-4.86-2.09-10.27-4.46-10.27-11.76s6.22-11.69,15.81-11.69c3.38,0,7.03.68,10.54,2.23v5.81c-4.39-4.73-7.43-7.03-10.54-7.03-2.5,0-4.19,1.49-4.19,4.19,0,4.05,2.97,5.41,6.15,6.96,5.07,2.5,11.56,4.32,11.56,11.96s-7.3,11.69-16.49,11.69c-3.38,0-8.24-.68-11.76-2.23Z"/>
        <path class="cls-1" d="M272.48,32.9h-4.93v-.95h4.93l12.3-8.92h1.69v8.92h5v.95h-4.93v32.84h-14.06v-32.84Z"/>
        <path class="cls-1" d="M326.61,44.19v22.91h-1.69l-11.69-8.18c-.41,4.06-4.39,7.84-10.61,7.84s-10.27-2.91-10.27-9.12c0-7.03,6.28-11.76,20.21-11.89v-7.5c0-2.77-.41-6.35-4.46-6.35s-8.92,3.58-11.89,6.69v-5.14c4.39-1.62,10.14-2.5,13.52-2.5,11.28,0,16.89,2.77,16.89,13.24ZM315.26,28.17l-18.72-11.83v-.95h15.95l3.78,12.77h-1.01ZM312.55,57.97v-11.42c-5.27.95-7.3,4.8-7.3,8.85,0,3.65,1.28,6.15,3.85,6.15,2.43,0,3.45-2.03,3.45-3.58Z"/>
        <path class="cls-1" d="M384.33,17.09v50.01h-1.69l-11.89-8.24c-.68,4.66-4.66,7.91-10.88,7.91-9.46,0-14.53-6.96-14.53-17.64s5.81-18.18,14.8-18.18c5.07,0,8.99,2.77,10.14,6.89v-20.75h14.06ZM370.27,56.42v-15.14c0-3.24-1.42-5.54-4.19-5.54-4.66,0-5.61,4.6-5.61,12.97,0,7.5.34,13.18,5.54,13.18,2.77,0,4.26-2.23,4.26-5.47Z"/>
        <path class="cls-1" d="M402.24,30.2c-1.42,1.08-3.24,1.49-5.14,1.49-4.32,0-7.64-3.24-7.64-7.7s3.31-7.91,7.64-7.91c4.59,0,7.97,3.51,7.97,7.91,0,2.5-.41,3.58-2.7,8.65l-4.39,9.66h-4.87c4.06-3.65,6.28-6.96,9.12-12.1Z"/>
        <path class="cls-1" d="M440.15,44.19v22.91h-1.69l-11.69-8.18c-.41,4.06-4.39,7.84-10.61,7.84s-10.27-2.91-10.27-9.12c0-7.03,6.28-11.76,20.21-11.89v-7.5c0-2.77-.41-6.35-4.46-6.35s-8.92,3.58-11.89,6.69v-5.14c4.39-1.62,10.14-2.5,13.52-2.5,11.28,0,16.89,2.77,16.89,13.24ZM426.1,57.97v-11.42c-5.27.95-7.3,4.8-7.3,8.85,0,3.65,1.28,6.15,3.85,6.15,2.43,0,3.45-2.03,3.45-3.58Z"/>
        <path class="cls-1" d="M484.69,30.54v46.96h-14.26v-17.7c-.95,4.12-4.59,6.96-10.41,6.96-9.46,0-14.53-6.96-14.53-17.64s5.81-18.18,14.8-18.18c5.34,0,9.6,3.18,10.47,7.64l12.23-8.04h1.69ZM470.43,56.42v-15.14c0-3.24-1.42-5.54-4.19-5.54-4.66,0-5.61,4.6-5.61,12.97,0,7.5.34,13.18,5.54,13.18,2.77,0,4.26-2.23,4.26-5.47Z"/>
        <path class="cls-1" d="M528.01,31.96v35.14h-1.69l-12.03-8.92c-.41,5-4.6,8.58-11.15,8.58-7.5,0-11.56-3.78-11.56-12.16v-22.64h14.06v24.26c0,3.45.74,5.68,4.05,5.68,2.77,0,4.06-2.23,4.06-5.47v-24.46h14.26Z"/>
        <path class="cls-1" d="M534.78,20.26c0-4.12,3.38-7.5,7.57-7.5s7.5,3.38,7.5,7.5-3.38,7.57-7.5,7.57-7.57-3.38-7.57-7.57ZM535.32,31.96h14.06v33.79h-14.06V31.96Z"/>
      </g>
      <g>
        <path class="cls-1" d="M44.51,31.14c-.25.75-.48,1.56-.67,2.42,0,.03-.01.06-.02.09-.04.18-.08.37-.12.55-.05.25-.1.51-.15.77-.01.08-.03.15-.04.23-.14.84-.25,1.71-.32,2.61-.22.32-.44.65-.65.98-.19-.28-.4-.56-.59-.84-.44-.66-.87-1.31-1.31-1.97-.13-.19-.26-.39-.38-.58-.11-.16-.21-.32-.32-.48-.15-.22-.29-.45-.44-.67,0,0,0-.01-.01-.02-.25-.39-.42-.82-.41-1.29,0-.64.27-1.16.04-1.75-.12-.29-.27-.56-.44-.83-.15-.24-.32-.47-.48-.7-1.02-1.45-1.96-2.97-2.97-4.43-.06-.09-.12-.18-.18-.28-.18-.28-.36-.56-.54-.84-.16-.24-.33-.49-.51-.72-.03-.03-.09-.12-.16-.19-.03-.04-.07-.07-.1-.08-.03-.02-.04-.01-.05-.01,0,0-.02.02-.02.07-.02.14.11.31.19.45.24.41.51.81.75,1.22.36.62.74,1.23,1.12,1.84.18.3.37.59.55.89.56.9,1.12,1.8,1.67,2.7.11.18.08.36-.04.44-.1.07-.25.04-.37-.1-.11-.12-.21-.26-.3-.39-.17-.25-.3-.52-.46-.77-.73-1.2-1.47-2.39-2.24-3.56-.05-.07-.09-.14-.14-.21-.3-.45-.6-.91-.91-1.36-.16-.23-.32-.5-.51-.69,0,0-.02-.02-.02-.02-.04-.03-.07-.04-.09-.05-.02,0-.02,0-.02,0,0,0,0,0,0,.02,0,.05.04.18.06.2.04.07,4.17,6.94,4.27,7.11,0,0,0,.01.02.02.02.03.05.09.05.17,0,.15-.16.25-.3.2-.07-.03-.12-.08-.14-.11,0-.01-.02-.03-.02-.03-.09-.14-4.55-6.84-4.6-6.9-.01-.02-.05-.07-.1-.1-.02-.02-.04-.03-.06-.04,0,0-.01,0-.02,0,0,0,0,0,0,.02,0,.02,0,.05,0,.1,0,0,0,.01,0,.03.09.26.26.51.41.76.27.47.55.94.84,1.4.77,1.27,1.58,2.52,2.39,3.76,0,0,0,0,0,0,.13.21.28.41.42.61.12.18.23.37.31.57.07.17.03.31-.07.38-.12.08-.3.03-.42-.15-.58-.89-1.15-1.77-1.72-2.67-.19-.29-.38-.59-.57-.88-.19-.29-.38-.59-.57-.88-.2-.31-.4-.61-.61-.92-.05-.07-.09-.14-.14-.21-.18-.27-.34-.54-.52-.81-.04-.06-.08-.13-.13-.19,0,0,0-.01-.01-.02-.03-.04-.05-.08-.08-.12-.07-.1-.14-.2-.24-.23-.05-.02-.07,0-.07,0,0,0-.01.01,0,.05,0,.1.1.3.13.35.33.66.76,1.26,1.13,1.89.89,1.53,1.86,3.04,2.74,4.58.17.31.34.62.53.91.13.2.28.4.45.58.43.46,1.02.45,1.6.72.4.18.7.48.93.84.02.03.04.06.06.1.36.59.72,1.18,1.08,1.78.41.67.82,1.35,1.22,2.02.27.46.53.93.79,1.39-1.11,1.96-1.97,4.13-2.39,6.49-.04.23-.07.46-.1.69-.71-.4-1.4-.8-1.7-.98-.58-.34-1.4-.63-1.39-1.23,0-.59-.21-1.52-1.47-2.07-1.26-.55-2.12-.3-2.42-.22-.25.07-.37.24-.4.3-.04.05-.14.23-.09.49.06.31.22,1.19,1.27,2.07,1.05.89,1.97.67,2.5.4.53-.27,1.16.33,1.72.7.33.22,1.14.75,1.88,1.26-.23,2.08-.12,4.09.16,5.88-.7.71-1.29,1.31-1.66,1.68-.42.37-.88.74-1.25.96-.94.56-2.34,1.02-2.84,1.4-.26.2-1.14,1.07-1.93,1.87h0c-.49.5-.86.89-.9.93-.09.1.39.72,1.02,1.28.56.63,1.18,1.11,1.28,1.02.04-.03.43-.41.92-.9h0c.8-.78,1.67-1.66,1.87-1.92.38-.49.85-1.89,1.4-2.84.22-.37.59-.83.96-1.25.3-.29.75-.73,1.28-1.26.68,3.49,1.88,5.95,1.96,6.11l.23.45.39-.32c.17-.13,2.59-2.14,4.73-5.35.69,1.24,1.47,2.47,2.38,3.67l.32.43.32-.43c.91-1.2,1.69-2.43,2.38-3.67,2.14,3.21,4.57,5.22,4.73,5.35l.39.32.23-.45c.08-.16,1.26-2.56,1.95-6,1.42,1.98,2.59,3.62,2.69,3.77,0,0-.38.37-.19,1.2.19.83.63,1.78,1.17,2.47.54.7,1.05.96,1.53,1.1.27.08.77.01,1.14-.29.41-.25.63-.71.64-.98.02-.49-.05-1.07-.54-1.8-.48-.73-1.23-1.46-1.95-1.91-.72-.45-1.19-.21-1.19-.21-.12-.16-1.52-2.13-3.12-4.39,0-.02,0-.04,0-.06.29-1.82.41-3.87.16-6-.04-.4-.1-.79-.17-1.18.2-.14,1-.65,1.18-.82.1-.1.28-.29.44-.3.01,0,.02,0,.03,0,.08,0,.14.02.21.02.06,0,.11,0,.17-.05.06-.04.13-.08.19-.12h0s.71.9.71.9c.01,0,3.89-2.66,3.89-2.66-.04-.04-.08-.09-.12-.13-.19-.21-.39-.42-.56-.66-.16-.23-.34-.54-.65-.54,0,0,0,0,0,0-.28,0-.49.25-.71.4-.29.21-.58.41-.86.61-.32.23-.65.45-.97.67-.27.18-.53.36-.8.54-.11.07-.22.15-.33.22h0s-.03-.03-.03-.03c-.14.09-.27.18-.41.28-.3.2-1.21.77-1.52.98-.29-1.36-.72-2.66-1.26-3.88l1.54-2.18s7.29-10.58,8.17-11.82c.87-1.23,2.33-3.5,2.46-4.7,0,0-2.39,1.42-4.96,3.91-2.57,2.48-6.72,7.07-8.79,10,.28.2.56.4.84.59.17.12.33.24.5.35.38.26.51.71.3,1.12-.11.21-.29.37-.44.56-.14.19-.26.39-.4.57-.46-.86-.97-1.69-1.52-2.47-.18-2.24-.58-4.29-1.12-6.07l-.29-.89c-.28-.79-.57-1.53-.89-2.18-.04-1.54-1.03-2.69-2.43-2.89.46-1.87,1.61-5.49,3.07-6.28.9-.49,1.55-.28,1.79.14.08.13.11.29.09.45-.04.17-.15.33-.35.45-.11.07-.17.19-.18.31-.03.11-.02.22.04.33.12.19.37.25.56.13.46-.28.73-.74.76-1.23.04-.31-.02-.64-.2-.94-.43-.74-1.52-1.2-2.89-.45-2,1.1-3.24,5.82-3.53,7.07-.29.03-.59.1-.89.21-.3-.11-.6-.18-.89-.21-.29-1.25-1.53-5.97-3.53-7.07-1.37-.75-2.45-.29-2.88.45-.11.19-.18.4-.2.61-.1.6.17,1.21.74,1.56.19.12.44.06.56-.13.04-.06.05-.13.05-.2.04-.17-.02-.35-.18-.44-.3-.19-.39-.45-.36-.69.02-.07.04-.15.08-.21.25-.42.89-.63,1.79-.14,1.46.8,2.61,4.42,3.07,6.29-1.23.19-2.13,1.11-2.35,2.39-.03.16-.04.33-.05.5-.28.57-.55,1.2-.79,1.88M59.07,46.92c.05.29.09.57.12.86.2,1.71.15,3.37-.04,4.91-.05.38-.1.75-.16,1.11-.48,2.87-1.37,5.14-1.78,6.09-.82-.74-2.73-2.6-4.4-5.2,1.06-2.05,1.83-4.13,2.38-6.19.09-.35.18-.7.26-1.05.14-.62.26-1.24.36-1.85.22-1.34.35-2.65.4-3.93.03-.74.03-1.47.01-2.19.28.45.55.92.8,1.39.31.58.6,1.19.85,1.81.47,1.13.84,2.31,1.09,3.55.05.23.09.47.12.7ZM40.19,52.91c-.19-1.44-.26-3-.12-4.61.02-.17.03-.34.05-.52.01-.11.03-.22.05-.33.31-2.45,1.12-4.71,2.22-6.75.22-.4.45-.8.68-1.18.01.01.02.03.03.04-.02.81-.02,1.64.03,2.48.11,2.19.46,4.48,1.1,6.79.06.23.12.46.19.69.03.09.06.19.09.28.01.04.03.08.04.12.5,1.59,1.15,3.18,1.96,4.76-1.67,2.6-3.58,4.46-4.4,5.2-.41-.93-1.27-3.15-1.76-5.96-.06-.33-.11-.67-.16-1.02ZM46.73,34.83c.25-.26.5-.52.76-.77.59-.58,1.18-1.12,1.76-1.62v15.49c-.21,1.25-.58,2.44-1.04,3.55-.35.85-.76,1.65-1.2,2.4-.77-1.57-1.38-3.15-1.85-4.72-.1-.33-.19-.66-.27-.98-.38-1.47-.65-2.93-.81-4.36-.12-1.06-.18-2.1-.18-3.12,0-.86.02-1.71.08-2.53M45.32,31.31c.23-.68.49-1.31.75-1.89.54.34,1.62,1.07,2.95,2.14-.64.54-1.29,1.13-1.94,1.77-.3.29-.6.6-.9.91-.7.73-1.39,1.52-2.05,2.36.2-1.64.53-3.16.94-4.51.08-.27.16-.53.25-.78ZM55.19,36.6c-.58-.74-1.19-1.45-1.8-2.11-.42-.45-.85-.88-1.27-1.28-.61-.59-1.22-1.14-1.82-1.65,1.33-1.07,2.41-1.79,2.95-2.14.29.63.57,1.32.82,2.07.13.4.25.81.37,1.24.32,1.18.58,2.48.75,3.87ZM53,28.62c-.44.27-1.54.99-2.94,2.09v-3.93c1.54-.47,2.82.36,2.94,1.83ZM49.25,26.78v3.93c-1.4-1.11-2.5-1.82-2.94-2.09.11-1.48,1.4-2.3,2.94-1.83ZM48.87,52.01c.3-.7.57-1.43.78-2.19.24.86.55,1.67.9,2.45.39.88.84,1.7,1.31,2.46-.64,1.19-1.36,2.37-2.21,3.53-.84-1.16-1.57-2.34-2.2-3.52.52-.84,1-1.75,1.42-2.73ZM50.9,50.97c-.26-.68-.48-1.38-.65-2.1-.07-.31-.14-.63-.19-.95v-15.49c.59.51,1.2,1.06,1.8,1.66.19.19.38.38.56.57,1.02,1.05,2.01,2.22,2.91,3.5.11,1.46.11,2.99,0,4.58-.1,1.26-.27,2.55-.54,3.85-.04.2-.08.4-.13.59-.03.15-.07.29-.1.44-.5,2.07-1.23,4.17-2.26,6.24-.53-.9-1.01-1.87-1.4-2.91Z"/>
        <g>
          <path class="cls-1" d="M36.11,77.29c-.28-.11-.57-.21-.86-.31-.21-.07-.33-.21-.45-.38-.2-.3-.24-.64-.28-.98-.05-.53-.19-1.04-.48-1.49-.25-.39-.53-.77-.8-1.15-.06-.08-.13-.16-.2-.23-.29-.29-.57-.23-.67.16-.04.14-.06.28-.07.42,0,.97.12,1.9.78,2.67.04.05.13.11-.02.22-.52-.3-1.07-.61-1.6-.93-.06-.04-.11-.11-.16-.17-.31-.44-.71-.83-.93-1.33,0-.02-.02-.04-.04-.04-.06-.02-.13-.05-.17-.03-.06.04-.14.12-.13.17.03.19.09.37.15.62-.52-.29-.91-.64-1.35-.93-.33-.21-.51-.51-.63-.86-.13-.39-.17-.79-.14-1.2.01-.18.03-.36.06-.54.07-.49.01-.97-.12-1.44-.26-.9-.44-1.81-.54-2.74-.03-.26-.05-.53-.1-.78-.04-.19-.11-.39-.21-.56-.15-.24-.4-.26-.62-.09-.28.22-.46.51-.57.84-.15.42-.22.86-.24,1.31-.04,1.64.33,3.17,1.14,4.59.06.11.2.21.14.4-.07-.02-.15-.03-.21-.06-.64-.3-1.26-.65-1.81-1.11-.88-.73-1.23-1.68-1.12-2.8.02-.2.05-.4.09-.6.23-1.11.15-2.21-.06-3.31-.19-.97-.33-1.95-.49-2.93-.07-.44-.13-.88-.23-1.31-.06-.25-.17-.5-.31-.71-.24-.37-.56-.37-.83-.02-.15.19-.27.41-.35.63-.19.56-.39,1.11-.5,1.69-.46,2.44-.26,4.79,1.07,6.97.04.07.15.14.05.28-.76-.5-1.52-1-2.19-1.61-.66-.61-1.24-1.27-1.61-2.11-.06-.13-.12-.26-.2-.38-.28-.43-.33-.9-.26-1.4.11-.82.41-1.57.92-2.21.61-.76.96-1.64,1.15-2.58.12-.59.22-1.19.32-1.79.11-.66.27-1.31.53-1.93.24-.58.47-1.16.69-1.75.1-.26.18-.54.21-.82.04-.41-.24-.62-.61-.45-.27.13-.53.29-.76.49-.97.84-1.86,1.75-2.65,2.75-.61.77-1.07,1.63-1.25,2.6-.23,1.2-.2,2.42.04,3.62.07.34.16.67.24,1,.01.06.09.14-.06.21-.13-.2-.25-.4-.39-.59-.42-.61-.59-1.28-.55-2.01,0-.08,0-.16-.01-.24-.02-.12-.17-.19-.28-.12-.08.05-.15.12-.25.21-.25-.66-.42-1.3-.52-1.96-.09-.55-.06-1.09.06-1.63.16-.69.41-1.35.74-1.99.28-.53.64-.99,1.08-1.38.46-.39.95-.75,1.44-1.11.34-.25.71-.47,1.06-.71,1.13-.77,2.01-1.75,2.62-2.98.37-.75.84-1.43,1.33-2.1.12-.16.24-.33.35-.49.06-.08.12-.17.14-.27.02-.09,0-.22-.06-.27-.06-.06-.18-.04-.28-.06-.02,0-.04.01-.06.02-.63.28-1.26.55-1.89.83-1.6.71-3.04,1.67-4.43,2.73-1.31,1-2.18,2.32-2.75,3.85-.3.8-.48,1.63-.49,2.49,0,.12.01.26-.15.38-.17-.56-.32-1.08-.49-1.6-.17-.5-.13-.99.01-1.49.04-.14.1-.27.13-.4.01-.07-.02-.17-.07-.21-.05-.04-.16-.04-.22,0-.09.05-.17.13-.29.24-.13-.4-.25-.74-.34-1.09-.27-1-.27-1.99.05-2.98.18-.56.45-.96.88-1.28.07.06.14.13.21.2.67.68,1.49.93,2.43.88,1.88-.09,3.71-1.61,4.25-3.47.17-.57.2-1.15.07-1.74-.22-1.03-.84-1.73-1.84-2.08-.6-.21-1.23-.23-1.86-.11-.1.02-.2.1-.34.01.09-.07.14-.12.21-.17.52-.35,1.05-.69,1.57-1.04,1.48-.99,2.78-2.15,3.7-3.71.24-.4.55-.75.82-1.13.2-.28.4-.56.58-.85.05-.08.08-.18.1-.28.03-.13-.15-.28-.28-.24-.08.02-.15.06-.22.1-.75.44-1.5.88-2.24,1.34-.83.51-1.71.92-2.63,1.24-1.82.64-3.32,1.74-4.59,3.18-.43.49-.76,1.05-.97,1.67-.14.42-.26.85-.36,1.28-.1.45-.17.91-.26,1.37-.01.07.03.21-.16.19-.22-1.91-.38-3.82-.44-5.73.26-.11.38-.3.49-.49.28-.48.68-.86,1.17-1.12.34-.18.69-.33,1.05-.47,1.51-.6,2.93-1.38,4.2-2.39.73-.58,1.44-1.17,2.16-1.77.28-.23.54-.48.82-.72.36-.32.72-.65,1.1-.96.68-.55,1.37-1.08,2.05-1.61.27-.21.55-.41.81-.64.15-.13.29-.29.4-.45.11-.17-.02-.39-.21-.4-.1,0-.2,0-.3,0-.48.08-.96.14-1.44.25-1.38.3-2.76.63-4.15.93-.91.2-1.79.49-2.62.93-.99.52-1.8,1.23-2.35,2.22-.25.46-.52.92-.74,1.39-.48,1.03-1.01,2.03-1.64,2.97-.19.29-.36.59-.54.88-.04.06-.06.15-.19.12-.05-.21-.02-.43,0-.65.1-.87.33-1.71.53-2.55.22-.91.73-1.61,1.47-2.16.06-.05.15-.09.18-.16.03-.06.05-.17.02-.22-.03-.05-.13-.09-.2-.09-.19,0-.33.13-.48.24-.13.1-.22.27-.4.31-.02-.05-.04-.07-.04-.09.04-1.08.4-2.06.93-2.98.05-.08.13-.15.22-.19.16-.08.34-.14.51-.19.49-.15.95-.35,1.37-.63.22-.14.44-.29.66-.44.68-.48,1.43-.75,2.25-.83.3-.03.6-.06.91-.09.91-.07,1.81-.23,2.69-.46,1.01-.27,1.96-.64,2.78-1.3.89-.71,1.82-1.35,2.79-1.93.31-.19.6-.41.89-.63.09-.07.17-.17.23-.27.07-.12,0-.3-.14-.35-.07-.03-.16-.05-.23-.05-.57.02-1.13.02-1.7.08-1.23.12-2.43.42-3.64.66-1.28.25-2.51.65-3.71,1.12-1.36.53-2.55,1.3-3.52,2.42-.28.32-.58.62-.87.93-.06.06-.13.12-.2.17-.01-.17.04-.3.1-.42.18-.45.38-.89.55-1.35.42-1.12.79-2.25,1.32-3.32.04-.09.11-.18.12-.28.03-.26.2-.43.37-.61.59-.6,1.28-1.06,2.05-1.37.12-.05.26-.08.39-.13.07.14.12.25.17.36.23.54.63.93,1.14,1.21.39.22.82.36,1.27.4,1.93.17,3.53-.49,4.81-1.95.34-.38.57-.83.71-1.33.24-.86.1-1.64-.48-2.33-.08-.09-.15-.18-.26-.3.13-.07.23-.14.33-.18,1.71-.68,3.38-1.46,4.99-2.36.95-.53,1.9-1.07,2.85-1.61.37-.21.72-.44,1.08-.68.11-.08.21-.18.3-.3.04-.05.04-.16.01-.22-.03-.06-.13-.12-.19-.12-.2.02-.4.05-.6.1-.26.06-.51.14-.77.19-1.17.23-2.36.35-3.56.4-.44.02-.89.07-1.33.14-1,.17-1.97.45-2.93.78-1.54.54-2.97,1.27-4.2,2.37-.39.35-.82.66-1.23.99-.07.06-.14.16-.29.07.12-.14.24-.27.36-.4,1.22-1.36,2.62-2.53,3.99-3.73.74-.64,1.56-1.16,2.42-1.61,2.62-1.37,5.18-2.83,7.67-4.43.67-.43,1.29-.9,1.88-1.44.51-.46,1.03-.91,1.55-1.37.17-.15.35-.27.52-.42.14-.12.28-.26.21-.47-.08-.24-.3-.25-.51-.23-.54.04-1.09.08-1.63.15-.42.06-.84.15-1.25.26-.93.24-1.78.67-2.6,1.15-.63.36-1.26.73-1.9,1.08-.61.32-1.23.6-1.85.91-2.02,1.03-3.62,2.49-4.7,4.51-.19.36-.41.7-.64,1.03-.82,1.23-1.86,2.29-2.87,3.37-.03.03-.1.02-.2.04.05-.14.07-.23.12-.32.22-.39.43-.78.68-1.15.75-1.11,1.36-2.3,1.85-3.54.24-.6.51-1.19.8-1.77.63-1.3,1.37-2.52,2.18-3.71.2-.3.37-.63.54-.95.08-.15.12-.31-.01-.45-.09-.1-.23-.08-.44.04-.04.02-.07.04-.1.06-1.42.94-2.78,1.96-4.02,3.13-1.35,1.27-2.18,2.86-2.39,4.72-.11.98-.17,1.97-.24,2.96-.05.77-.11,1.53-.25,2.29-.08.39-.24.71-.5,1.01-1.02,1.15-2.03,2.31-2.86,3.61-.03.05-.09.08-.16.15,0-.11,0-.19.01-.27.09-.31.19-.62.27-.93.38-1.36.78-2.72,1.13-4.09.34-1.34.42-2.71.47-4.09.04-1.18,0-2.35-.17-3.51-.04-.25-.01-.57-.34-.65-.25-.06-.4.18-.53.34-.57.68-1.15,1.36-1.69,2.07-.74.99-1.15,2.13-1.34,3.35-.2,1.31-.15,2.62.07,3.93.18,1.1.36,2.2.54,3.29.24,1.44.12,2.86-.15,4.28-.02.12,0,.29-.21.3-.06-.36-.12-.69-.19-1.03-.02-.12-.07-.23-.14-.33-.04-.05-.15-.1-.2-.08-.06.02-.13.11-.13.18,0,.18.03.36.05.54.25,1.91.19,3.11-.82,4.65-.07.1-.13.2-.19.31-.26.43-.52.87-.78,1.3-.03.06-.09.1-.19.21-.03-.67-.02-1.26-.07-1.84-.09-1.1,0-2.18.19-3.26.17-.94.27-1.88.29-2.83.03-1.06-.02-2.11-.32-3.13-.13-.43-.27-.85-.41-1.27-.21-.61-.41-1.23-.63-1.84-.07-.19-.13-.41-.37-.44-.25-.03-.33.2-.42.38-.37.74-.68,1.51-.86,2.33-.21.91-.3,1.84-.39,2.76-.12,1.21-.1,2.43.12,3.63.19,1.06.51,2.08.89,3.09.3.79.61,1.59.89,2.39.19.53.36,1.08.35,1.66-.03,1.03,0,2.06-.36,3.05-.11.3-.16.63-.25.94-.02.09-.02.21-.17.25-.02-.12-.05-.23-.06-.35-.12-.86-.32-1.71-.67-2.51-.23-.52-.38-1.07-.46-1.63-.11-.7-.23-1.4-.34-2.1-.17-1.12-.55-2.15-1.18-3.09-.63-.94-1.27-1.88-1.9-2.82-.18-.27-.37-.53-.55-.8-.09-.13-.2-.28-.39-.24-.23.05-.22.25-.23.44-.05.99-.05,1.98.04,2.97.15,1.62.56,3.19,1.09,4.72.43,1.26,1.06,2.4,2.06,3.31.37.33.65.77.92,1.2.53.81.94,1.7,1.33,2.59.1.22.14.46.14.71.02.97.06,1.94.09,2.91,0,.05-.02.1-.03.15-.04,0-.07.01-.08,0-.29-.27-.59-.55-.86-.81,0-.05-.01-.07-.01-.09.02-.08.04-.16.07-.23.21-.55.24-1.11.13-1.67-.33-1.68-1.33-2.82-2.89-3.49-.38-.16-.77-.23-1.18-.25-1.4-.07-2.53.83-2.75,2.21-.11.66-.03,1.29.23,1.9.61,1.47,1.66,2.48,3.23,2.86,1.01.25,1.93.05,2.69-.69.05-.05.1-.14.26-.09.44.3.84.73,1.14,1.23.08.13.13.3.15.45.08.68.15,1.37.21,2.05.03.42.03.84.04,1.23-.13.11-.21.19-.28.24,0,.07-.01.09,0,.11.03.08.05.16.1.22.41.63.56,1.33.61,2.07.05.77.13,1.53.18,2.3,0,.1.07.23-.06.31-.48-.61-.88-1.26-1.15-1.92-.26-.64-.51-1.28-.76-1.92-.53-1.34-1.39-2.39-2.63-3.16-1.58-.98-3.23-1.85-4.86-2.74-.18-.1-.36-.19-.55-.25-.35-.1-.7-.18-1.06-.26-.08-.02-.16-.01-.24,0-.14.02-.24.2-.18.33.03.07.07.14.12.21.98,1.31,1.97,2.62,2.95,3.93.45.6.99,1.12,1.56,1.61,1.26,1.09,2.61,2.04,4.13,2.76.33.15.65.35.91.59,1.1,1.04,1.99,2.23,2.37,3.74.01.06.02.12.05.17.24.43.31.92.46,1.38.46,1.49.9,2.98,1.5,4.42.02.06.02.13.04.27-.28-.21-.43-.43-.58-.64-.32-.46-.64-.94-.95-1.41-.46-.69-.93-1.38-1.56-1.93-.94-.83-1.87-1.67-2.91-2.38-1.36-.93-2.61-1.98-3.66-3.25-.03-.03-.05-.06-.08-.09-.1-.1-.2-.21-.36-.15-.11.04-.15.17-.1.37.03.12.05.24.09.35.18.49.36.99.55,1.48.34.84.71,1.68,1.02,2.53.37,1.02.93,1.93,1.67,2.72.14.15.28.29.42.44.59.61,1.28,1.06,2.08,1.33.77.26,1.53.53,2.31.73.94.24,1.78.65,2.51,1.28.22.19.38.4.52.66.37.72.74,1.44,1.16,2.13.56.91,1.17,1.79,1.76,2.69.15.23.29.45.34.79-.2-.11-.35-.17-.48-.26-.3-.21-.6-.42-.89-.64-.67-.51-1.39-.88-2.22-1.09-.72-.19-1.43-.45-2.13-.69-.63-.22-1.23-.51-1.81-.85-.94-.56-1.87-1.13-2.81-1.69-.29-.18-.59-.36-.89-.52-.12-.07-.26-.11-.4-.13-.26-.04-.45.13-.41.39.03.18.08.36.16.52.15.31.31.61.48.91.9,1.66,2.21,2.93,3.79,3.94.41.26.85.46,1.32.6.8.24,1.61.4,2.44.41.93.02,1.86,0,2.79.02.56.02,1.13.1,1.69.16.21.02.38.12.53.27.56.59,1.24,1.03,1.9,1.51.6.44,1.19.91,1.78,1.36.06.04.14.09.1.18-.55-.13-1.09-.27-1.64-.38-1.32-.26-2.62-.15-3.89.24-1.04.32-2.07.7-3.14.93-.36.08-.71.16-1.06.26-.17.05-.35.12-.5.22-.2.12-.23.35-.08.52.16.18.34.36.54.47,1.09.56,2.23.86,3.45.54.39-.1.77-.25,1.14-.4.68-.26,1.34-.57,2.03-.81,1.29-.45,2.61-.71,3.99-.67.34.01.62.1.9.3.61.44,1.27.79,1.96,1.09.46.2.89.47,1.33.72.09.05.16.15.3.27-.64-.06-1.2-.11-1.76-.18-.6-.07-1.17.01-1.73.2-.56.18-1.12.35-1.68.54-.35.11-.69.23-1.03.36-.19.07-.37.17-.54.28-.4.26-.39.56.01.79.12.07.25.12.39.17,1.2.43,2.41.5,3.62.06.61-.22,1.22-.44,1.82-.67.63-.24,1.26-.43,1.93-.54.25-.04.46.01.69.14.79.45,1.59.88,2.39,1.31.33.18.67.35,1.06.54-.11.04-.16.07-.21.07-1.14.03-1.97.65-2.74,1.4-.23.23-.17.47.14.54.65.15,1.31.23,1.98.05.46-.12.86-.34,1.24-.61.34-.25.69-.49,1.09-.65.27-.11.54-.16.82-.03.07.03.15.05.23.06.11,0,.2-.06.22-.17.01-.07-.02-.17-.07-.21-.11-.08-.24-.14-.37-.19ZM12.51,45.06s.04,0,.05,0c.02.01.03.03.03.05.08.35.17.7.25,1.03-.17.22-.33.43-.48.64-.14.19-.26.4-.45.69-.02-.67.25-1.69.6-2.41ZM19.1,16.31c.21-.15.44-.27.78-.47q-.33.68-.97.76c.07-.12.11-.23.19-.29ZM17.31,18.64c.16-.24.34-.46.47-.71.31-.57.83-.78,1.51-.9-.04.32-.08.58-.12.88-.31.14-.65.27-.97.44-.32.16-.62.35-1.02.58.06-.16.08-.24.12-.29Z"/>
          <path class="cls-1" d="M91.66,47.68c-.05-.06-.12-.11-.21-.12-.02,0-.05,0-.07,0-.04,0-.07,0-.11,0,0,0,0,0,0,0,0,0,0,0,0,0-.02,0-.04,0-.06.01-.07.02-.15.04-.22.05-.24.06-.48.11-.71.21-.04.02-.09.04-.13.06-.85.35-1.7.71-2.54,1.09,0,0-.01,0-.02,0-1.49.68-2.62,1.78-3.54,3.12-.12.18-.24.36-.35.55-.34.56-.64,1.13-.93,1.72-.04.08-.07.17-.13.25,0,0,0,0,0,0-.02.03-.05.05-.08.08,0,0-.01.01-.02.02,0,0,0,0-.01,0-.02.01-.04.02-.06.03.04-.31.08-.59.12-.87.03-.19.05-.38.08-.57.06-.43.12-.86.18-1.29.01-.1.03-.21.04-.31.06-.41.11-.82.18-1.22.02-.13.05-.27.08-.4.13-.6.35-1.17.63-1.72.28-.55.55-1.1.81-1.65.14-.29.27-.57.41-.86.18-.39.34-.79.46-1.19.43-1.35.56-2.74.31-4.19-.14-.82-.26-1.65-.33-2.49-.04-.48-.06-.95-.06-1.44,0-.05,0-.1,0-.15-.01-.21-.04-.42-.06-.64-.01-.1-.03-.2-.06-.3,0-.02-.01-.03-.02-.04-.02-.03-.04-.07-.06-.09-.05-.05-.13-.08-.2-.08-.02,0-.05,0-.07,0,0,0-.01,0-.02,0-.03,0-.06.02-.09.04-.01,0-.02.01-.04.03-.01,0-.02.02-.03.03-.08.07-.15.16-.2.25-.32.59-.68,1.15-.93,1.77-.07.17-.13.34-.2.51-.08.2-.15.41-.23.62-.23.63-.44,1.27-.64,1.91-.24.75-.38,1.52-.45,2.3-.03.37-.05.73-.06,1.1,0,.02,0,.04,0,.06,0,.58.03,1.17.09,1.75.03.35.08.69.12,1.03.11.8.21,1.61.28,2.41,0,.11.02.21.02.32.04.56.05,1.12-.03,1.68-.01.1-.03.19-.05.29-.02.11-.05.23-.06.34-.02.11-.03.23-.05.35-.03.23-.05.46-.07.69-.06.75-.18,1.49-.33,2.21-.22,1.01-.51,2-.86,2.97-.07.2-.11.41-.34.63.04-.26.08-.49.11-.71.03-.17.05-.34.07-.5.11-.79.17-1.57.15-2.36,0-.39-.03-.78-.08-1.17-.05-.39-.12-.78-.21-1.17-.08-.35-.17-.71-.26-1.06-.29-1.14-.65-2.26-1.1-3.34-.27-.65-.57-1.29-.9-1.92-.22-.41-.45-.81-.69-1.21-.03-.05-.06-.09-.09-.14-.06-.09-.13-.17-.21-.24-.09-.09-.2-.12-.31-.11-.03,0-.05,0-.08.02-.08.02-.14.08-.19.15-.07.11-.14.23-.18.36,0,0,0,0,0,0,0,0,0,.01,0,.02-.01.04-.02.08-.03.11-.08.4-.17.8-.2,1.2,0,.06,0,.12-.01.17-.01.27-.01.53-.01.8,0,1.29.17,2.55.53,3.77.04.13.08.27.13.4.18.53.4,1.05.66,1.57.41.79.81,1.59,1.2,2.38.39.78.73,1.58.8,2.46,0,.1.01.19.02.29.01.29.01.58,0,.86,0,.14-.01.29-.02.43-.02.24-.04.48-.06.72-.02.23-.06.45-.12.67-.11.42-.29.82-.54,1.2-.13.2-.25.4-.37.61-.1.17-.2.34-.3.52-.17.29-.33.57-.5.86-.08.13-.16.26-.25.39-.08.12-.17.24-.25.37-.05.07-.14.11-.26.21,0-.08,0-.16-.02-.23,0-.07-.02-.14-.03-.21-.02-.14-.03-.27,0-.4.58-.36.97-.82,1.23-1.35.2-.42.32-.88.38-1.38,0-.07.02-.14.02-.21.02-.21.02-.43,0-.64-.07-1-.37-1.91-.96-2.69-.12-.16-.25-.32-.4-.47-.19-.19-.4-.36-.62-.5-.2-.13-.42-.23-.65-.3-.44-.14-.85-.18-1.25-.1-.4.07-.78.26-1.14.56-.13.11-.24.22-.35.35-.23.27-.4.57-.53.9-.05.12-.1.25-.14.38-.25.81-.25,1.64-.07,2.46.03.13.07.26.1.39.06.2.13.4.21.59.23.52.54.99.96,1.39.08.08.17.16.26.23,0,0,0,0,0,0,.31.25.64.44,1,.55,0,0,.01,0,.02,0,.1.03.2.06.3.08,0,0,.02,0,.02,0,.08.01.17.03.25.03.19.02.38.01.58,0,.05,0,.11,0,.18,0,.03,0,.07,0,.11,0,.01.08.03.15.04.23.07.43.1.84-.1,1.22-.06.1-.13.21-.22.31-.13.14-.27.29-.4.44-.06.07-.13.15-.19.23-.31.38-.6.78-.84,1.22-.02.03-.06.04-.1.06-.1-.13,0-.27,0-.4,0-.05.01-.11.02-.16,0-.05,0-.09,0-.14-.01-.07-.08-.15-.14-.17-.06-.02-.17.02-.2.07-.02.03-.04.06-.05.1-.03.08-.06.16-.08.24-.01.06-.03.12-.04.19-.03.16-.06.31-.09.47-.05.24-.12.46-.21.67-.03.07-.07.14-.1.21-.15.27-.34.52-.58.73-.05.04-.1.08-.14.13-.03.02-.05.05-.08.08-.03.03-.06.06-.09.09-.06.07-.13.14-.2.21-.1.11-.21.21-.32.32-.13.12-.25.24-.38.35-.67.59-1.39,1.12-2.11,1.65,0,0-.01.01-.02.02-.03.02-.06.05-.1.06-.01,0-.02,0-.03,0-.02,0-.05-.01-.08-.03.05-.07.1-.14.15-.21,0,0,.01-.01.01-.02.12-.15.26-.29.39-.43.04-.04.08-.08.11-.12.24-.27.49-.54.73-.81.04-.04.08-.09.12-.13.25-.27.49-.55.73-.83.39-.46.69-.96.87-1.52.07-.23.13-.46.17-.71.07-.54.14-1.07.21-1.61.07-.61.14-1.22.22-1.82.01-.1.01-.21,0-.32,0-.04,0-.07-.01-.1,0-.04-.02-.07-.04-.11-.06-.1-.18-.15-.31-.12-.02,0-.05.01-.07.03-.04.02-.07.04-.11.06-.03.02-.07.05-.1.07-1.43,1.09-2.44,2.43-2.79,4.2-.02.12-.04.24-.06.36-.01.1-.03.2-.05.31-.08.51-.18,1.02-.27,1.53-.04.2-.08.41-.11.61-.12.67-.39,1.28-.76,1.84-.23.35-.49.7-.74,1.03-.05.07-.12.14-.19.2-.02.02-.05.04-.07.06-.18.15-.39.28-.6.38-.08.03-.16.07-.23.09,0-.02.01-.03.02-.05.02-.06.05-.12.07-.18,0-.02.02-.05.02-.07,0-.03.02-.06.03-.08.02-.05.04-.1.03-.15,0-.05-.02-.11-.04-.17-.02-.04-.03-.08-.06-.1,0,0-.02-.01-.03-.02-.08-.04-.17.03-.22.11,0,0,0,0,0,0-.03.04-.05.08-.08.13-.01.02-.03.05-.04.07-.04.07-.07.14-.1.21-.04.09-.09.19-.13.28-.19.38-.44.69-.81.91-.03.02-.06.03-.09.05-.22.11-.42.24-.61.39-.19.15-.38.31-.55.48-.05.05-.1.1-.16.14-.05.04-.11.09-.17.12-.12.08-.25.14-.38.19-.03,0-.05.02-.08.03-.14.06-.28.13-.41.22-.05.04-.09.15-.08.23,0,.01,0,.02,0,.03.02.1.11.14.21.12.01,0,.03,0,.04-.01.04-.02.09-.03.13-.05.21-.08.42-.15.62-.25.02-.01.04-.02.06-.03.03-.01.05-.03.07-.04.1-.06.21-.13.32-.18.32-.17.65-.31,1.02-.36.04,0,.07-.01.1-.02.02,0,.03-.01.05-.02.05-.02.09-.06.12-.11.02-.03.04-.07.05-.12-.03-.04-.06-.09-.09-.14-.03-.05-.07-.1-.1-.15.36-.22.72-.44,1.08-.66.21-.13.42-.25.63-.37.03-.02.07-.04.11-.05.06-.02.13-.04.19-.05.06-.01.11-.02.16-.03.4-.08.81-.1,1.21-.08.1,0,.2.01.3.02.3.03.6.08.9.15.31.07.62.11.92.12.1,0,.2,0,.31,0,.11,0,.22,0,.32-.01.01,0,.02,0,.03,0,.51-.04,1.02-.16,1.52-.35.59-.22,1.18-.43,1.77-.65.15-.06.31-.11.46-.17.64-.23,1.29-.45,1.93-.67.77-.26,1.53-.52,2.29-.8.21-.07.41-.18.59-.3.03-.02.05-.04.07-.06.06-.07.08-.15.08-.22,0-.1-.07-.2-.19-.26-.11-.05-.22-.1-.34-.14-.07-.02-.14-.05-.22-.07-.04-.01-.09-.02-.13-.04-.48-.11-.96-.2-1.44-.25-.66-.08-1.32-.11-1.99-.09-.18,0-.37.01-.55.03-.16.01-.33.03-.49.05h0c-1.02.14-1.99.45-2.91.95-.11.06-.23.12-.35.18-.01,0-.03.01-.04.02-.34.16-.69.29-1.04.44-.04-.15.09-.2.18-.25.29-.21.56-.42.83-.64.57-.47,1.11-.98,1.63-1.51,0,0,.01-.01.02-.02.18-.18.39-.31.63-.39.02,0,.05-.02.07-.03.17-.05.34-.1.52-.14.09-.02.18-.03.28-.04.09,0,.19,0,.28,0,.07,0,.15,0,.22,0,0,0,.01,0,.02,0,.07,0,.14-.05.18-.1.01-.01.02-.03.03-.04.03-.04.04-.1.04-.15,0-.02,0-.03,0-.05-.02-.08-.09-.15-.18-.18-.03-.01-.07-.01-.11-.01-.07,0-.13.02-.2.03-.11.02-.23.04-.34.05-.06,0-.13,0-.2,0-.03,0-.06,0-.09,0,0-.02,0-.04,0-.05,0-.05,0-.09.02-.1.35-.39.74-.71,1.19-.91.04-.02.09-.04.14-.06.23-.09.48-.16.74-.19.56-.06,1.13-.11,1.69-.15.25-.02.5-.04.74-.07.74-.09,1.47-.23,2.18-.45.4-.13.78-.27,1.16-.43.81-.35,1.58-.77,2.31-1.28.64-.44,1.28-.88,1.93-1.31.73-.49,1.46-.99,2.19-1.48.06-.04.12-.08.18-.13.06-.05.13-.09.19-.14.06-.04.11-.08.17-.13.05-.04.09-.08.14-.12.04-.04.08-.09.12-.14.1-.12.08-.28-.02-.36,0,0,0,0,0,0-.02-.02-.04-.03-.07-.04-.02,0-.03-.01-.05-.02-.13-.03-.27-.04-.4-.04-.05,0-.09,0-.13,0-1.07.09-2.11.26-3.14.5-.13.03-.26.06-.38.1-.43.11-.85.24-1.27.38-.16.05-.32.11-.48.17-.3.11-.59.22-.88.35-.86.36-1.68.79-2.41,1.34-.12.09-.24.19-.36.29-.12.1-.23.2-.35.31-.09.08-.18.16-.27.24-.2.18-.41.33-.63.46-.06.03-.11.06-.17.09-.17.09-.35.17-.54.25-.1.04-.21.08-.31.13-.19.08-.38.16-.58.24-.24.11-.49.21-.73.31-.04.02-.08.05-.12.06-.01,0-.02,0-.03,0-.01,0-.03,0-.04,0-.02,0-.04-.03-.07-.06.21-.25.42-.49.62-.74.17-.22.35-.43.52-.65.05-.07.1-.14.16-.2.28-.37.55-.76.77-1.17.3-.56.72-.96,1.32-1.18.13-.05.25-.13.36-.21.03-.02.04-.12.02-.16-.02-.05-.09-.1-.13-.1,0,0-.02,0-.03,0-.04,0-.07,0-.11,0,0,0-.02,0-.03,0-.12.01-.24.03-.37.04h0s0,0,0,0c0,0,0-.01,0-.02,0,0,0,0,0,0,0,0,0-.01,0-.02,0,0,0,0,0,0,.45-.61,1.03-1.02,1.78-1.15.14-.03.29-.05.43-.08.33-.05.67-.1,1-.16.16-.03.32-.05.48-.08.36-.06.72-.12,1.07-.23.64-.21,1.23-.5,1.8-.86.19-.12.37-.24.56-.38.39-.29.78-.57,1.18-.84.31-.21.61-.42.92-.62.55-.36,1.12-.7,1.7-1.02.33-.18.65-.38.97-.59.11-.07.21-.14.32-.21.19-.12.34-.28.46-.47.02-.04.04-.07.06-.11.13-.29.01-.54-.3-.59-.18-.03-.36-.02-.54,0-.16.01-.32.03-.48.04,0,0-.01,0-.02,0-.5.05-.99.14-1.48.24-.16.03-.33.07-.49.11-.49.12-.97.25-1.45.4-.29.09-.58.19-.86.31-.32.13-.63.28-.93.45-.49.27-.95.59-1.39.95-.14.12-.28.23-.42.35-.22.18-.43.36-.65.53-.03.03-.07.06-.1.08-.42.33-.84.66-1.27.97-.03.02-.05.04-.08.06-.02.02-.04.03-.06.04-.06.04-.13.08-.19.11-.05.02-.09.04-.14.07-.05.02-.09.04-.14.06-.05.02-.1.05-.15.08-.12.07-.24.14-.41.14,0-.01.01-.03.02-.04.17-.42.34-.84.51-1.24.13-.32.26-.63.39-.94.02-.06.04-.12.09-.16.09-.07.17-.16.23-.25.09-.12.15-.26.23-.39.02-.03.04-.06.06-.09.32-.46.71-.86,1.18-1.16.09-.06.19-.12.29-.17.34-.17.67-.34,1-.52.1-.05.19-.1.29-.15.05-.03.11-.06.16-.09.94-.5,1.77-1.14,2.46-1.95,1.2-1.4,2.39-2.8,3.57-4.21.19-.23.34-.5.5-.76.02-.03.03-.05.04-.08.04-.08.06-.17.09-.26,0-.04,0-.08,0-.12,0-.04-.03-.07-.05-.11Z"/>
        </g>
      </g>
    </g>
  </g>
</svg>