<?xml version="1.0" encoding="utf-8"?>
<!-- Generator: Adobe Illustrator 24.0.1, SVG Export Plug-In . SVG Version: 6.00 Build 0)  -->
<svg version="1.1" id="Calque_1" xmlns="http://www.w3.org/2000/svg" xmlns:xlink="http://www.w3.org/1999/xlink" x="0px" y="0px"
	 width="223px" height="204px" viewBox="0 0 223 204" style="enable-background:new 0 0 223 204;" xml:space="preserve">
<style type="text/css">
	.st0{fill:#FFFFFF;}
	.st1{fill:url(#SVGID_1_);}
	.st2{fill:url(#SVGID_2_);}
	.st3{clip-path:url(#SVGID_3_);fill:url(#SVGID_4_);}
	.st4{clip-path:url(#SVGID_5_);fill:url(#SVGID_6_);}
	.st5{clip-path:url(#SVGID_7_);fill:url(#SVGID_8_);}
	.st6{clip-path:url(#SVGID_9_);fill:url(#SVGID_10_);}
	.st7{clip-path:url(#SVGID_11_);fill:url(#SVGID_12_);}
	.st8{clip-path:url(#SVGID_13_);fill:url(#SVGID_14_);}
	.st9{clip-path:url(#SVGID_15_);fill:url(#SVGID_16_);}
	.st10{clip-path:url(#SVGID_17_);fill:url(#SVGID_18_);}
	.st11{clip-path:url(#SVGID_19_);fill:url(#SVGID_20_);}
	.st12{clip-path:url(#SVGID_21_);fill:url(#SVGID_22_);}
	.st13{opacity:0.3;}
	.st14{fill:#C48200;}
	.st15{clip-path:url(#SVGID_23_);fill:url(#SVGID_24_);}
	.st16{clip-path:url(#SVGID_25_);fill:url(#SVGID_26_);}
	.st17{clip-path:url(#SVGID_27_);fill:url(#SVGID_28_);}
	.st18{clip-path:url(#SVGID_29_);fill:url(#SVGID_30_);}
	.st19{clip-path:url(#SVGID_31_);fill:url(#SVGID_32_);}
	.st20{clip-path:url(#SVGID_33_);fill:url(#SVGID_34_);}
	.st21{clip-path:url(#SVGID_35_);fill:url(#SVGID_36_);}
	.st22{clip-path:url(#SVGID_37_);fill:url(#SVGID_38_);}
	.st23{clip-path:url(#SVGID_39_);fill:url(#SVGID_40_);}
	.st24{clip-path:url(#SVGID_41_);fill:url(#SVGID_42_);}
	.st25{clip-path:url(#SVGID_43_);fill:url(#SVGID_44_);}
	.st26{clip-path:url(#SVGID_45_);fill:url(#SVGID_46_);}
	.st27{clip-path:url(#SVGID_47_);fill:url(#SVGID_48_);}
	.st28{clip-path:url(#SVGID_49_);fill:url(#SVGID_50_);}
	.st29{clip-path:url(#SVGID_51_);fill:url(#SVGID_52_);}
	.st30{clip-path:url(#SVGID_53_);fill:url(#SVGID_54_);}
	.st31{clip-path:url(#SVGID_55_);fill:url(#SVGID_56_);}
</style>
<g>
	<polygon class="st0" points="161.2,11 57.2,11 5.2,101.1 57.2,191.2 161.2,191.2 213.2,101.1 	"/>
	<g>
		<linearGradient id="SVGID_1_" gradientUnits="userSpaceOnUse" x1="38.1371" y1="172.1439" x2="180.2038" y2="30.0773">
			<stop  offset="1.079844e-03" style="stop-color:#DCE7F5"/>
			<stop  offset="0.9944" style="stop-color:#F3F0DF;stop-opacity:0.4"/>
		</linearGradient>
		<polygon class="st1" points="161.2,11 57.2,11 5.2,101.1 57.2,191.2 161.2,191.2 213.2,101.1 		"/>
		<linearGradient id="SVGID_2_" gradientUnits="userSpaceOnUse" x1="3.4384" y1="101.6226" x2="214.9025" y2="101.6226">
			<stop  offset="0.118" style="stop-color:#D1A965"/>
			<stop  offset="0.264" style="stop-color:#A67F4B"/>
			<stop  offset="0.4888" style="stop-color:#EAC07A"/>
			<stop  offset="0.6292" style="stop-color:#A67F4B"/>
			<stop  offset="0.7584" style="stop-color:#D1A965"/>
			<stop  offset="0.9326" style="stop-color:#DEBC7D"/>
			<stop  offset="0.9944" style="stop-color:#DFB260"/>
		</linearGradient>
		<path class="st2" d="M214.2,100.5L201,78l-13.3-22.5l-26.5-44.6L57.2,10.5l-0.3,0l-0.2,0.3L4.4,100.7l-0.3,0.4l0.3,0.5l51.7,90.2
			l0.3,0.6l0.7,0c17.3,0.1,34.7,0.3,52,0.3l26,0.1l26,0l0.9,0l0.5-0.8l25.9-45.1l25.8-45.2l0.4-0.6L214.2,100.5z M185.9,145.4
			l-25.6,44.2l-25.1,0l-26,0.1c-17.1,0-34.2,0.2-51.3,0.3L6.2,101.1l51.3-89.5l103.6-0.4l25.5,45.5l12.7,22.6l12.4,21.9L185.9,145.4
			z"/>
	</g>
</g>
<g>
	<g id="Victoire_2_">
		<g>
			<defs>
				<path id="SVGID_86_" d="M102.2,71.1c-1.3-0.4-2.7-0.5-4.2-0.5c-7.8,0-17.9,5.8-30.3,17.4c-3.8,3.6-8.1,8-12.9,13.3
					c-4.8,5.3-10.2,11.6-16.2,18.7c-0.7,0.8-1.2,1.2-1.7,1.2c-0.5,0-0.8-0.5-1-1.4c-0.1-0.7-0.1-1.4,0-2.1c0.7-3.7,3.8-12,9.6-24.8
					c2.6-6,4.6-11,6-14.8c1.4-3.9,2.1-6.7,2.2-8.5c0.1-2.1-0.8-3.9-2.5-5.4c-1.6-1.4-3.6-2.1-5.8-1.9c-0.9,0.1-1.8,0.3-2.7,0.5
					c0,0-1.9,0.7-1.5,1.7c0.3,0.9,2.1,0.2,2.1,0.2c1-0.3,2-0.5,3-0.6c0.3,0,0.5-0.1,0.8-0.1c0.3,0,0.5,0,0.7,0
					c2.4,0,3.6,1.1,3.6,3.4v1.1c-0.1,0.3-0.1,0.4-0.1,0.5c0,0.1,0,0.2,0,0.3c-0.2,3.5-3.1,11.3-8.8,23.6c-2.9,6.3-5.2,11.5-6.7,15.7
					c-1.5,4.1-2.4,7.3-2.5,9.4c0,0.5,0.1,0.9,0.2,1.5c0.2,0.5,0.4,1,0.7,1.4c0.3,0.4,0.7,0.8,1.1,1.1c0.4,0.3,0.9,0.4,1.5,0.4
					c1,0,1.9-0.5,2.8-1.5c2.9-3.2,5.7-6.4,8.5-9.6c2.8-3.2,5.6-6.3,8.5-9.5c4.1-4.5,7.9-8.4,11.5-11.8c3.6-3.4,6.9-6.2,10-8.6
					c8.3-6.5,15.3-9.7,21-9.7c0.5,0,1,0,1.5,0.1c0.5,0.1,1,0.1,1.6,0.2c0.7,0.2,1,0.1,1-0.2C103.1,71.7,102.8,71.4,102.2,71.1z"/>
			</defs>
			<clipPath id="SVGID_3_">
				<use xlink:href="#SVGID_86_"  style="overflow:visible;"/>
			</clipPath>
			<linearGradient id="SVGID_4_" gradientUnits="userSpaceOnUse" x1="47.3274" y1="168.5094" x2="174.7132" y2="41.1236">
				<stop  offset="0.118" style="stop-color:#D1A965"/>
				<stop  offset="0.264" style="stop-color:#A67F4B"/>
				<stop  offset="0.4888" style="stop-color:#EAC07A"/>
				<stop  offset="0.6292" style="stop-color:#A67F4B"/>
				<stop  offset="0.7584" style="stop-color:#D1A965"/>
				<stop  offset="0.9326" style="stop-color:#DEBC7D"/>
				<stop  offset="0.9944" style="stop-color:#DFB260"/>
			</linearGradient>
			<rect x="32.6" y="55.8" class="st3" width="156.8" height="97.9"/>
		</g>
		<g>
			<defs>
				<path id="SVGID_89_" d="M181.8,89.2c-2.1-0.3-4.3-0.2-6.2-0.6c-0.6-0.2-2.1-1-2.8-1c0,0-0.2-0.2-0.3-0.4l-0.5-0.6
					c-0.2-0.2-0.3-0.4-0.7-0.7c-0.4-0.3-0.6-0.3-0.9-0.5c-0.6-0.2-1.1-0.3-1.7-0.4c-0.2,0-0.3,0-0.5,0c-0.1,0-0.2,0-0.3,0l-0.2,0
					c0,0,0,0,0,0c0,0-0.3-0.1-0.5-0.1c-0.4-0.2-0.9-0.4-1.4-0.6c-0.3-0.1-0.5-0.3-1.1-0.3c-0.4,0-0.7,0.1-1,0.1
					c-0.6,0.1-1.1,0.2-1.6,0.3c-0.1,0-0.2,0-0.3,0c-0.1,0-0.2,0-0.3,0l-0.8-0.1c-0.6,0-1.2,0-1.8,0.1c-0.2,0-0.4,0.1-0.6,0.1
					c-0.2,0-0.1,0-0.3-0.1c-0.2-0.2-0.7-0.4-0.9-0.4c-0.2,0-0.3-0.1-0.4-0.2c-0.1-0.1-0.2-0.3-0.4-0.5c-0.1-0.1-0.1-0.2-0.3-0.4
					l-0.2-0.3l-0.9-1.3l-0.2-0.3c0-0.1-0.1-0.2-0.2-0.3l-0.4-0.7c-0.3-0.5-0.6-1-1.1-1.5c-0.3-0.2-0.6-0.4-0.9-0.5
					c-0.3-0.1-0.6-0.2-0.8-0.2c-1.1-0.2-2.2-0.2-3.2-0.4c-0.9-0.3-1.8-0.9-2.7-1.4c-0.9-0.5-1.9-1.1-3-1c1.1,0.1,1.9,0.7,2.8,1.3
					l1.3,0.9c0.5,0.3,0.8,0.6,1.5,0.8c1.1,0.3,2.1,0.4,3.1,0.7c0.2,0.1,0.5,0.1,0.7,0.2c0.2,0.1,0.3,0.2,0.5,0.3
					c0.3,0.3,0.5,0.7,0.7,1.1l0.3,0.7c0.1,0.1,0.1,0.3,0.2,0.4l0.2,0.4l0.9,1.3l0.2,0.3l0.2,0.3c0.1,0.3,0.3,0.5,0.6,0.8
					c0.3,0.3,0.6,0.5,0.9,0.6c0.3,0.1,0.3,0.1,0.5,0.3c0.2,0.2,0.7,0.4,1.1,0.5c0.4,0,0.7,0,1,0c0.5-0.1,0.9-0.1,1.4,0l0.8,0.1
					c0.1,0,0.3,0,0.5,0c0.2,0,0.4,0,0.5-0.1c0.5-0.1,1-0.2,1.5-0.3c0.2,0,0.5-0.1,0.6-0.1c0,0,0.2,0.1,0.4,0.2
					c0.5,0.2,1,0.4,1.5,0.6c0.3,0.1,0.5,0.2,1.1,0.2l0.2,0c0,0,0.1,0,0.1,0c0.1,0,0.2,0,0.3,0c0.5,0.1,0.9,0.2,1.4,0.3
					c0.8,0.1,0.9,1,2.3,2c1.4,0.3,1.8,0.6,3.2,1c2.3,0.3,4.3,0,6.4,0.1c2.1,0,4.3,0.3,6.4-0.2C186,89.9,183.9,89.5,181.8,89.2z"/>
			</defs>
			<clipPath id="SVGID_5_">
				<use xlink:href="#SVGID_89_"  style="overflow:visible;"/>
			</clipPath>
			<linearGradient id="SVGID_6_" gradientUnits="userSpaceOnUse" x1="47.3274" y1="168.5094" x2="174.7132" y2="41.1236">
				<stop  offset="0.118" style="stop-color:#D1A965"/>
				<stop  offset="0.264" style="stop-color:#A67F4B"/>
				<stop  offset="0.4888" style="stop-color:#EAC07A"/>
				<stop  offset="0.6292" style="stop-color:#A67F4B"/>
				<stop  offset="0.7584" style="stop-color:#D1A965"/>
				<stop  offset="0.9326" style="stop-color:#DEBC7D"/>
				<stop  offset="0.9944" style="stop-color:#DFB260"/>
			</linearGradient>
			<rect x="32.6" y="55.8" class="st4" width="156.8" height="97.9"/>
		</g>
		<g>
			<defs>
				<path id="SVGID_92_" d="M140.3,75.5c-0.7-0.8-1.2-1.8-1.7-2.7c-0.3-0.5-0.5-0.9-1-1.3c-0.4-0.3-0.7-0.7-1.1-1.1l-1-1.3
					c-0.3-0.4-0.7-0.9-1.2-1.2c-1-0.7-2.3-0.9-3.4-0.7c-0.6,0.1-1.1,0.2-1.7,0.4l-0.8,0.3c-0.3,0.1-0.5,0.2-0.6,0.2
					c-0.2,0-0.3,0-0.5-0.1c-0.2,0-0.7-0.3-1.2-0.1c-0.4,0.1-0.6,0.3-0.9,0.4c-0.2,0.1-0.5,0.3-0.5,0.3c0,0-0.1,0-0.1,0l-0.3-0.1
					c-0.3-0.1-0.6-0.2-1.1-0.1c-0.8,0.1-1.2,0.4-1.7,0.6c-0.2,0.1-0.5,0.2-0.7,0.3c-0.1,0-0.2,0.1-0.3,0.1c-0.1,0,0,0-0.1,0
					c-0.3,0-1-0.3-1.5-0.4c-0.6-0.1-1.2-0.1-1.8-0.1c-0.6,0-1.1,0.1-1.6,0.1c-1,0-1.9-0.2-2.9-0.5c-0.5-0.2-1-0.4-1.7-0.5
					c-0.1,0-0.2,0-0.3,0c0-0.1,0-0.1,0-0.2c0.1-0.2,0.1-0.4,0.1-0.7c0-0.1,0-0.2,0-0.4c0.1,0,0.1,0,0.2,0c0.2,0,0.4-0.1,0.5-0.2
					c-0.2,0-0.3-0.1-0.5-0.1c-0.1,0-0.1,0-0.2,0c0-0.2-0.1-0.4-0.2-0.6c-0.1,0.2-0.1,0.4-0.2,0.5c-0.3,0-0.5,0-0.8,0.2
					c0.2,0.2,0.5,0.2,0.7,0.2c0,0.1,0,0.2,0,0.4c0,0.2,0,0.4,0,0.7c0,0.1,0,0.1,0.1,0.2c-0.2,0-0.4,0.1-0.5,0.1
					c-0.4,0.2-0.6,0.4-0.9,0.6c-0.9,0.9-1.3,1.9-1.9,2.7c-0.6,0.8-1.3,1.6-2.1,2.3c-1.4,1.5-3.3,2.7-4.8,4.3
					c0.9-0.6,1.8-1.2,2.7-1.8c0.9-0.6,1.9-1.1,2.7-1.8c0.8-0.7,1.7-1.4,2.4-2.2c0.8-0.8,1.3-1.8,2-2.4c0.2-0.1,0.3-0.3,0.4-0.3
					c0.1,0,0.2-0.1,0.4,0c0.4,0.1,0.9,0.3,1.4,0.5c1,0.4,2.2,0.7,3.4,0.7c0.6,0,1.1-0.1,1.6-0.1c0.5,0,1,0,1.4,0.1
					c0.5,0.1,0.8,0.2,1.6,0.4c0.2,0,0.5,0,0.7,0c0.2,0,0.3-0.1,0.5-0.2c0.3-0.1,0.5-0.2,0.8-0.3c0.5-0.2,1-0.4,1.3-0.5
					c0,0,0.3,0,0.5,0.1c0.1,0,0.2,0.1,0.4,0.1c0.3,0,0.5,0,0.7,0c0.5-0.2,0.7-0.3,0.9-0.5c0.2-0.1,0.4-0.3,0.5-0.3c0,0,0,0,0.4,0.1
					c0.3,0.1,0.7,0.1,1.1,0.1c0.4-0.1,0.7-0.2,0.9-0.3l0.7-0.3c0.5-0.2,0.9-0.4,1.4-0.5c0.9-0.2,1.9-0.2,2.8,0.3
					c0.8,0.5,1.5,1.3,2.3,2c0.4,0.4,0.8,0.8,1.3,1c0.4,0.3,0.7,0.8,0.9,1.2c0.6,0.9,1.1,1.8,1.8,2.7c0.7,0.8,1.5,1.6,2.6,1.9
					C141.7,77.1,140.9,76.4,140.3,75.5z"/>
			</defs>
			<clipPath id="SVGID_7_">
				<use xlink:href="#SVGID_92_"  style="overflow:visible;"/>
			</clipPath>
			<linearGradient id="SVGID_8_" gradientUnits="userSpaceOnUse" x1="47.3274" y1="168.5094" x2="174.7132" y2="41.1236">
				<stop  offset="0.118" style="stop-color:#D1A965"/>
				<stop  offset="0.264" style="stop-color:#A67F4B"/>
				<stop  offset="0.4888" style="stop-color:#EAC07A"/>
				<stop  offset="0.6292" style="stop-color:#A67F4B"/>
				<stop  offset="0.7584" style="stop-color:#D1A965"/>
				<stop  offset="0.9326" style="stop-color:#DEBC7D"/>
				<stop  offset="0.9944" style="stop-color:#DFB260"/>
			</linearGradient>
			<rect x="32.6" y="55.8" class="st5" width="156.8" height="97.9"/>
		</g>
		<g>
			<defs>
				<path id="SVGID_95_" d="M173.2,95.8h8.8v-1.2h-8.7c-0.7,0-1.4,0.1-1.9,0.4c-0.7,0.3-1,0.8-1.1,1.5l0,12.5c0,0.7,0.4,1.2,1.1,1.6
					c0.6,0.3,1.2,0.4,1.9,0.4h8.7v-1.2l-8.8,0c-1.2-0.1-1.2-0.7-1.2-0.8v-5.6h8.6v-1.2H172v-5.6C172,96.4,172,95.9,173.2,95.8z"/>
			</defs>
			<clipPath id="SVGID_9_">
				<use xlink:href="#SVGID_95_"  style="overflow:visible;"/>
			</clipPath>
			<linearGradient id="SVGID_10_" gradientUnits="userSpaceOnUse" x1="47.3274" y1="168.5094" x2="174.7132" y2="41.1236">
				<stop  offset="0.118" style="stop-color:#D1A965"/>
				<stop  offset="0.264" style="stop-color:#A67F4B"/>
				<stop  offset="0.4888" style="stop-color:#EAC07A"/>
				<stop  offset="0.6292" style="stop-color:#A67F4B"/>
				<stop  offset="0.7584" style="stop-color:#D1A965"/>
				<stop  offset="0.9326" style="stop-color:#DEBC7D"/>
				<stop  offset="0.9944" style="stop-color:#DFB260"/>
			</linearGradient>
			<rect x="32.6" y="55.8" class="st6" width="156.8" height="97.9"/>
		</g>
		<g>
			<defs>
				<path id="SVGID_98_" d="M163.5,103.2c1.6-1,2.4-2.3,2.4-3.8c0-1.8-0.8-3.1-2.5-4c-1.3-0.7-2.9-1.1-4.6-1.1h-4.3
					c-0.7,0-1.3,0.1-1.9,0.4c-0.7,0.4-1.1,0.9-1.1,1.7V111h1.7v-6.5h4.5c1.1,0,2.1-0.1,2.9-0.2l3.6,6.8h1.8l-3.8-7.2
					C162.7,103.6,163.1,103.4,163.5,103.2z M164.1,99.4c0,1.4-0.7,2.4-2.1,3.1c-1,0.5-2.3,0.8-3.9,0.8h-5v-6.9c0-0.2,0-0.7,1.2-0.8
					h4.4c1.4,0,2.6,0.3,3.6,0.8C163.5,97,164.1,98,164.1,99.4z"/>
			</defs>
			<clipPath id="SVGID_11_">
				<use xlink:href="#SVGID_98_"  style="overflow:visible;"/>
			</clipPath>
			<linearGradient id="SVGID_12_" gradientUnits="userSpaceOnUse" x1="47.3274" y1="168.5094" x2="174.7132" y2="41.1236">
				<stop  offset="0.118" style="stop-color:#D1A965"/>
				<stop  offset="0.264" style="stop-color:#A67F4B"/>
				<stop  offset="0.4888" style="stop-color:#EAC07A"/>
				<stop  offset="0.6292" style="stop-color:#A67F4B"/>
				<stop  offset="0.7584" style="stop-color:#D1A965"/>
				<stop  offset="0.9326" style="stop-color:#DEBC7D"/>
				<stop  offset="0.9944" style="stop-color:#DFB260"/>
			</linearGradient>
			<rect x="32.6" y="55.8" class="st7" width="156.8" height="97.9"/>
		</g>
		<g>
			<defs>
				<rect id="SVGID_101_" x="145.3" y="94.5" width="1.7" height="16.4"/>
			</defs>
			<clipPath id="SVGID_13_">
				<use xlink:href="#SVGID_101_"  style="overflow:visible;"/>
			</clipPath>
			<linearGradient id="SVGID_14_" gradientUnits="userSpaceOnUse" x1="47.3274" y1="168.5094" x2="174.7132" y2="41.1236">
				<stop  offset="0.118" style="stop-color:#D1A965"/>
				<stop  offset="0.264" style="stop-color:#A67F4B"/>
				<stop  offset="0.4888" style="stop-color:#EAC07A"/>
				<stop  offset="0.6292" style="stop-color:#A67F4B"/>
				<stop  offset="0.7584" style="stop-color:#D1A965"/>
				<stop  offset="0.9326" style="stop-color:#DEBC7D"/>
				<stop  offset="0.9944" style="stop-color:#DFB260"/>
			</linearGradient>
			<rect x="32.6" y="55.8" class="st8" width="156.8" height="97.9"/>
		</g>
		<g>
			<defs>
				<path id="SVGID_104_" d="M138.2,96.7c-2.2-1.6-5-2.5-8.4-2.5c-3.4,0-6.2,0.8-8.4,2.4c-1.8,1.3-2.7,3.4-2.7,6.1
					c0,2.7,0.9,4.7,2.7,6.1c2.2,1.6,5.1,2.5,8.4,2.5c3,0,5.7-0.8,7.9-2.3c2.1-1.4,3.1-3.5,3.1-6.2C140.9,100.1,140,98,138.2,96.7z
					 M129.9,110c-2.9,0-5.3-0.7-7.2-2.1c-1.4-1.1-2.1-2.8-2.1-5.1c0-2.3,0.7-4.1,2.1-5.1c1.9-1.4,4.3-2.1,7.2-2.1
					c2.9,0,5.3,0.7,7.2,2.1c1.4,1,2.1,2.8,2.1,5.1c0,2.3-0.7,4.1-2.1,5.1C135.2,109.3,132.8,110,129.9,110z"/>
			</defs>
			<clipPath id="SVGID_15_">
				<use xlink:href="#SVGID_104_"  style="overflow:visible;"/>
			</clipPath>
			<linearGradient id="SVGID_16_" gradientUnits="userSpaceOnUse" x1="47.3274" y1="168.5094" x2="174.7132" y2="41.1236">
				<stop  offset="0.118" style="stop-color:#D1A965"/>
				<stop  offset="0.264" style="stop-color:#A67F4B"/>
				<stop  offset="0.4888" style="stop-color:#EAC07A"/>
				<stop  offset="0.6292" style="stop-color:#A67F4B"/>
				<stop  offset="0.7584" style="stop-color:#D1A965"/>
				<stop  offset="0.9326" style="stop-color:#DEBC7D"/>
				<stop  offset="0.9944" style="stop-color:#DFB260"/>
			</linearGradient>
			<rect x="32.6" y="55.8" class="st9" width="156.8" height="97.9"/>
		</g>
		<g>
			<defs>
				<polygon id="SVGID_107_" points="99.6,95.8 106.1,95.8 106.1,111 107.8,111 107.8,95.8 114.4,95.8 114.4,94.5 99.6,94.5 				"/>
			</defs>
			<clipPath id="SVGID_17_">
				<use xlink:href="#SVGID_107_"  style="overflow:visible;"/>
			</clipPath>
			<linearGradient id="SVGID_18_" gradientUnits="userSpaceOnUse" x1="47.3274" y1="168.5094" x2="174.7132" y2="41.1236">
				<stop  offset="0.118" style="stop-color:#D1A965"/>
				<stop  offset="0.264" style="stop-color:#A67F4B"/>
				<stop  offset="0.4888" style="stop-color:#EAC07A"/>
				<stop  offset="0.6292" style="stop-color:#A67F4B"/>
				<stop  offset="0.7584" style="stop-color:#D1A965"/>
				<stop  offset="0.9326" style="stop-color:#DEBC7D"/>
				<stop  offset="0.9944" style="stop-color:#DFB260"/>
			</linearGradient>
			<rect x="32.6" y="55.8" class="st10" width="156.8" height="97.9"/>
		</g>
		<g>
			<defs>
				<path id="SVGID_110_" d="M80.3,97.1c1.8-1.1,4.1-1.6,6.6-1.6c2.8,0,5.1,0.7,7,2.1l0.1,0.1l1.4-0.8l-0.2-0.1
					c-2.3-1.6-5.1-2.5-8.3-2.5c-2.9,0-5.5,0.6-7.7,1.9c-2.7,1.5-4.1,3.8-4.1,6.6c0,2.9,1.4,5.1,4,6.7c2.2,1.2,4.8,1.9,7.7,1.9
					c3,0,5.7-0.8,7.9-2.3l0.1-0.1l-1-1.2l-0.1,0.1c-1.9,1.4-4.3,2.2-7,2.2c-2.5,0-4.8-0.5-6.6-1.6c-2.2-1.3-3.4-3.2-3.4-5.6
					C77,100.3,78.1,98.4,80.3,97.1z"/>
			</defs>
			<clipPath id="SVGID_19_">
				<use xlink:href="#SVGID_110_"  style="overflow:visible;"/>
			</clipPath>
			<linearGradient id="SVGID_20_" gradientUnits="userSpaceOnUse" x1="47.3274" y1="168.5094" x2="174.7132" y2="41.1236">
				<stop  offset="0.118" style="stop-color:#D1A965"/>
				<stop  offset="0.264" style="stop-color:#A67F4B"/>
				<stop  offset="0.4888" style="stop-color:#EAC07A"/>
				<stop  offset="0.6292" style="stop-color:#A67F4B"/>
				<stop  offset="0.7584" style="stop-color:#D1A965"/>
				<stop  offset="0.9326" style="stop-color:#DEBC7D"/>
				<stop  offset="0.9944" style="stop-color:#DFB260"/>
			</linearGradient>
			<rect x="32.6" y="55.8" class="st11" width="156.8" height="97.9"/>
		</g>
		<g>
			<defs>
				<rect id="SVGID_113_" x="69.1" y="94.5" width="1.7" height="16.4"/>
			</defs>
			<clipPath id="SVGID_21_">
				<use xlink:href="#SVGID_113_"  style="overflow:visible;"/>
			</clipPath>
			<linearGradient id="SVGID_22_" gradientUnits="userSpaceOnUse" x1="47.3274" y1="168.5094" x2="174.7132" y2="41.1236">
				<stop  offset="0.118" style="stop-color:#D1A965"/>
				<stop  offset="0.264" style="stop-color:#A67F4B"/>
				<stop  offset="0.4888" style="stop-color:#EAC07A"/>
				<stop  offset="0.6292" style="stop-color:#A67F4B"/>
				<stop  offset="0.7584" style="stop-color:#D1A965"/>
				<stop  offset="0.9326" style="stop-color:#DEBC7D"/>
				<stop  offset="0.9944" style="stop-color:#DFB260"/>
			</linearGradient>
			<rect x="32.6" y="55.8" class="st12" width="156.8" height="97.9"/>
		</g>
	</g>
	<g class="st13">
		<g>
			<rect x="69.1" y="94.5" class="st14" width="1.7" height="16.4"/>
			<path class="st14" d="M80.3,97.1c1.8-1.1,4.1-1.6,6.6-1.6c2.8,0,5.1,0.7,7,2.1l0.1,0.1l1.4-0.8l-0.2-0.1
				c-2.3-1.6-5.1-2.5-8.3-2.5c-2.9,0-5.5,0.6-7.7,1.9c-2.7,1.5-4.1,3.8-4.1,6.6c0,2.9,1.4,5.1,4,6.7c2.2,1.2,4.8,1.9,7.7,1.9
				c3,0,5.7-0.8,7.9-2.3l0.1-0.1l-1-1.2l-0.1,0.1c-1.9,1.4-4.3,2.2-7,2.2c-2.5,0-4.8-0.5-6.6-1.6c-2.2-1.3-3.4-3.2-3.4-5.6
				C77,100.3,78.1,98.4,80.3,97.1z"/>
			<polygon class="st14" points="99.6,95.8 106.1,95.8 106.1,111 107.8,111 107.8,95.8 114.4,95.8 114.4,94.5 99.6,94.5 			"/>
			<path class="st14" d="M138.2,96.7c-2.2-1.6-5-2.5-8.4-2.5c-3.4,0-6.2,0.8-8.4,2.4c-1.8,1.3-2.7,3.4-2.7,6.1
				c0,2.7,0.9,4.7,2.7,6.1c2.2,1.6,5.1,2.5,8.4,2.5c3,0,5.7-0.8,7.9-2.3c2.1-1.4,3.1-3.5,3.1-6.2C140.9,100.1,140,98,138.2,96.7z
				 M129.9,110c-2.9,0-5.3-0.7-7.2-2.1c-1.4-1.1-2.1-2.8-2.1-5.1c0-2.3,0.7-4.1,2.1-5.1c1.9-1.4,4.3-2.1,7.2-2.1
				c2.9,0,5.3,0.7,7.2,2.1c1.4,1,2.1,2.8,2.1,5.1c0,2.3-0.7,4.1-2.1,5.1C135.2,109.3,132.8,110,129.9,110z"/>
			<rect x="145.3" y="94.5" class="st14" width="1.7" height="16.4"/>
			<path class="st14" d="M163.5,103.2c1.6-1,2.4-2.3,2.4-3.8c0-1.8-0.8-3.1-2.5-4c-1.3-0.7-2.9-1.1-4.6-1.1h-4.3
				c-0.7,0-1.3,0.1-1.9,0.4c-0.7,0.4-1.1,0.9-1.1,1.7V111h1.7v-6.5h4.5c1.1,0,2.1-0.1,2.9-0.2l3.6,6.8h1.8l-3.8-7.2
				C162.7,103.6,163.1,103.4,163.5,103.2z M164.1,99.4c0,1.4-0.7,2.4-2.1,3.1c-1,0.5-2.3,0.8-3.9,0.8h-5v-6.9c0-0.2,0-0.7,1.2-0.8
				h4.4c1.4,0,2.6,0.3,3.6,0.8C163.5,97,164.1,98,164.1,99.4z"/>
			<path class="st14" d="M173.2,95.8h8.8v-1.2h-8.7c-0.7,0-1.4,0.1-1.9,0.4c-0.7,0.3-1,0.8-1.1,1.5l0,12.5c0,0.7,0.4,1.2,1.1,1.6
				c0.6,0.3,1.2,0.4,1.9,0.4h8.7v-1.2l-8.8,0c-1.2-0.1-1.2-0.7-1.2-0.8v-5.6h8.6v-1.2H172v-5.6C172,96.4,172,95.9,173.2,95.8z"/>
		</g>
		<g>
			<path class="st14" d="M140.3,75.5c-0.7-0.8-1.2-1.8-1.7-2.7c-0.3-0.5-0.5-0.9-1-1.3c-0.4-0.3-0.7-0.7-1.1-1.1l-1-1.3
				c-0.3-0.4-0.7-0.9-1.2-1.2c-1-0.7-2.3-0.9-3.4-0.7c-0.6,0.1-1.1,0.2-1.7,0.4l-0.8,0.3c-0.3,0.1-0.5,0.2-0.6,0.2
				c-0.2,0-0.3,0-0.5-0.1c-0.2,0-0.7-0.3-1.2-0.1c-0.4,0.1-0.6,0.3-0.9,0.4c-0.2,0.1-0.5,0.3-0.5,0.3c0,0-0.1,0-0.1,0l-0.3-0.1
				c-0.3-0.1-0.6-0.2-1.1-0.1c-0.8,0.1-1.2,0.4-1.7,0.6c-0.2,0.1-0.5,0.2-0.7,0.3c-0.1,0-0.2,0.1-0.3,0.1c-0.1,0,0,0-0.1,0
				c-0.3,0-1-0.3-1.5-0.4c-0.6-0.1-1.2-0.1-1.8-0.1c-0.6,0-1.1,0.1-1.6,0.1c-1,0-1.9-0.2-2.9-0.5c-0.5-0.2-1-0.4-1.7-0.5
				c-0.1,0-0.2,0-0.3,0c0-0.1,0-0.1,0-0.2c0.1-0.2,0.1-0.4,0.1-0.7c0-0.1,0-0.2,0-0.4c0.1,0,0.1,0,0.2,0c0.2,0,0.4-0.1,0.5-0.2
				c-0.2,0-0.3-0.1-0.5-0.1c-0.1,0-0.1,0-0.2,0c0-0.2-0.1-0.4-0.2-0.6c-0.1,0.2-0.1,0.4-0.2,0.5c-0.3,0-0.5,0-0.8,0.2
				c0.2,0.2,0.5,0.2,0.7,0.2c0,0.1,0,0.2,0,0.4c0,0.2,0,0.4,0,0.7c0,0.1,0,0.1,0.1,0.2c-0.2,0-0.4,0.1-0.5,0.1
				c-0.4,0.2-0.6,0.4-0.9,0.6c-0.9,0.9-1.3,1.9-1.9,2.7c-0.6,0.8-1.3,1.6-2.1,2.3c-1.4,1.5-3.3,2.7-4.8,4.3c0.9-0.6,1.8-1.2,2.7-1.8
				c0.9-0.6,1.9-1.1,2.7-1.8c0.8-0.7,1.7-1.4,2.4-2.2c0.8-0.8,1.3-1.8,2-2.4c0.2-0.1,0.3-0.3,0.4-0.3c0.1,0,0.2-0.1,0.4,0
				c0.4,0.1,0.9,0.3,1.4,0.5c1,0.4,2.2,0.7,3.4,0.7c0.6,0,1.1-0.1,1.6-0.1c0.5,0,1,0,1.4,0.1c0.5,0.1,0.8,0.2,1.6,0.4
				c0.2,0,0.5,0,0.7,0c0.2,0,0.3-0.1,0.5-0.2c0.3-0.1,0.5-0.2,0.8-0.3c0.5-0.2,1-0.4,1.3-0.5c0,0,0.3,0,0.5,0.1
				c0.1,0,0.2,0.1,0.4,0.1c0.3,0,0.5,0,0.7,0c0.5-0.2,0.7-0.3,0.9-0.5c0.2-0.1,0.4-0.3,0.5-0.3c0,0,0,0,0.4,0.1
				c0.3,0.1,0.7,0.1,1.1,0.1c0.4-0.1,0.7-0.2,0.9-0.3l0.7-0.3c0.5-0.2,0.9-0.4,1.4-0.5c0.9-0.2,1.9-0.2,2.8,0.3
				c0.8,0.5,1.5,1.3,2.3,2c0.4,0.4,0.8,0.8,1.3,1c0.4,0.3,0.7,0.8,0.9,1.2c0.6,0.9,1.1,1.8,1.8,2.7c0.7,0.8,1.5,1.6,2.6,1.9
				C141.7,77.1,140.9,76.4,140.3,75.5z"/>
			<path class="st14" d="M181.8,89.2c-2.1-0.3-4.3-0.2-6.2-0.6c-0.6-0.2-2.1-1-2.8-1c0,0-0.2-0.2-0.3-0.4l-0.5-0.6
				c-0.2-0.2-0.3-0.4-0.7-0.7c-0.4-0.3-0.6-0.3-0.9-0.5c-0.6-0.2-1.1-0.3-1.7-0.4c-0.2,0-0.3,0-0.5,0c-0.1,0-0.2,0-0.3,0l-0.2,0
				c0,0,0,0,0,0c0,0-0.3-0.1-0.5-0.1c-0.4-0.2-0.9-0.4-1.4-0.6c-0.3-0.1-0.5-0.3-1.1-0.3c-0.4,0-0.7,0.1-1,0.1
				c-0.6,0.1-1.1,0.2-1.6,0.3c-0.1,0-0.2,0-0.3,0c-0.1,0-0.2,0-0.3,0l-0.8-0.1c-0.6,0-1.2,0-1.8,0.1c-0.2,0-0.4,0.1-0.6,0.1
				c-0.2,0-0.1,0-0.3-0.1c-0.2-0.2-0.7-0.4-0.9-0.4c-0.2,0-0.3-0.1-0.4-0.2c-0.1-0.1-0.2-0.3-0.4-0.5c-0.1-0.1-0.1-0.2-0.3-0.4
				l-0.2-0.3l-0.9-1.3l-0.2-0.3c0-0.1-0.1-0.2-0.2-0.3l-0.4-0.7c-0.3-0.5-0.6-1-1.1-1.5c-0.3-0.2-0.6-0.4-0.9-0.5
				c-0.3-0.1-0.6-0.2-0.8-0.2c-1.1-0.2-2.2-0.2-3.2-0.4c-0.9-0.3-1.8-0.9-2.7-1.4c-0.9-0.5-1.9-1.1-3-1c1.1,0.1,1.9,0.7,2.8,1.3
				l1.3,0.9c0.5,0.3,0.8,0.6,1.5,0.8c1.1,0.3,2.1,0.4,3.1,0.7c0.2,0.1,0.5,0.1,0.7,0.2c0.2,0.1,0.3,0.2,0.5,0.3
				c0.3,0.3,0.5,0.7,0.7,1.1l0.3,0.7c0.1,0.1,0.1,0.3,0.2,0.4l0.2,0.4l0.9,1.3l0.2,0.3l0.2,0.3c0.1,0.3,0.3,0.5,0.6,0.8
				c0.3,0.3,0.6,0.5,0.9,0.6c0.3,0.1,0.3,0.1,0.5,0.3c0.2,0.2,0.7,0.4,1.1,0.5c0.4,0,0.7,0,1,0c0.5-0.1,0.9-0.1,1.4,0l0.8,0.1
				c0.1,0,0.3,0,0.5,0c0.2,0,0.4,0,0.5-0.1c0.5-0.1,1-0.2,1.5-0.3c0.2,0,0.5-0.1,0.6-0.1c0,0,0.2,0.1,0.4,0.2c0.5,0.2,1,0.4,1.5,0.6
				c0.3,0.1,0.5,0.2,1.1,0.2l0.2,0c0,0,0.1,0,0.1,0c0.1,0,0.2,0,0.3,0c0.5,0.1,0.9,0.2,1.4,0.3c0.8,0.1,0.9,1,2.3,2
				c1.4,0.3,1.8,0.6,3.2,1c2.3,0.3,4.3,0,6.4,0.1c2.1,0,4.3,0.3,6.4-0.2C186,89.9,183.9,89.5,181.8,89.2z"/>
		</g>
		<path class="st14" d="M102.2,71.1c-1.3-0.4-2.7-0.5-4.2-0.5c-7.8,0-17.9,5.8-30.3,17.4c-3.8,3.6-8.1,8-12.9,13.3
			c-4.8,5.3-10.2,11.6-16.2,18.7c-0.7,0.8-1.2,1.2-1.7,1.2c-0.5,0-0.8-0.5-1-1.4c-0.1-0.7-0.1-1.4,0-2.1c0.7-3.7,3.8-12,9.6-24.8
			c2.6-6,4.6-11,6-14.8c1.4-3.9,2.1-6.7,2.2-8.5c0.1-2.1-0.8-3.9-2.5-5.4c-1.6-1.4-3.6-2.1-5.8-1.9c-0.9,0.1-1.8,0.3-2.7,0.5
			c0,0-1.9,0.7-1.5,1.7c0.3,0.9,2.1,0.2,2.1,0.2c1-0.3,2-0.5,3-0.6c0.3,0,0.5-0.1,0.8-0.1c0.3,0,0.5,0,0.7,0c2.4,0,3.6,1.1,3.6,3.4
			v1.1c-0.1,0.3-0.1,0.4-0.1,0.5c0,0.1,0,0.2,0,0.3c-0.2,3.5-3.1,11.3-8.8,23.6c-2.9,6.3-5.2,11.5-6.7,15.7
			c-1.5,4.1-2.4,7.3-2.5,9.4c0,0.5,0.1,0.9,0.2,1.5c0.2,0.5,0.4,1,0.7,1.4c0.3,0.4,0.7,0.8,1.1,1.1c0.4,0.3,0.9,0.4,1.5,0.4
			c1,0,1.9-0.5,2.8-1.5c2.9-3.2,5.7-6.4,8.5-9.6c2.8-3.2,5.6-6.3,8.5-9.5c4.1-4.5,7.9-8.4,11.5-11.8c3.6-3.4,6.9-6.2,10-8.6
			c8.3-6.5,15.3-9.7,21-9.7c0.5,0,1,0,1.5,0.1c0.5,0.1,1,0.1,1.6,0.2c0.7,0.2,1,0.1,1-0.2C103.1,71.7,102.8,71.4,102.2,71.1z"/>
	</g>
</g>
<g>
	<g id="artisan_patissier_2_">
		<g>
			<defs>
				<path id="SVGID_116_" d="M161.3,150.6c0.8-0.3,1.2-1,1.2-1.9c0-1.3-0.9-2.1-2.5-2.1h-2.3v6h0.9v-1.8h1.4c0.1,0,0.3,0,0.4,0
					l1.3,1.8h1L161.3,150.6z M158.7,147.4h1.4c0.7,0,1.6,0.2,1.6,1.3c0,0.8-0.6,1.3-1.6,1.3h-1.4V147.4z"/>
			</defs>
			<clipPath id="SVGID_23_">
				<use xlink:href="#SVGID_116_"  style="overflow:visible;"/>
			</clipPath>
			<linearGradient id="SVGID_24_" gradientUnits="userSpaceOnUse" x1="33.1856" y1="185.1011" x2="185.2171" y2="33.0696">
				<stop  offset="0.118" style="stop-color:#D1A965"/>
				<stop  offset="0.264" style="stop-color:#A67F4B"/>
				<stop  offset="0.4888" style="stop-color:#EAC07A"/>
				<stop  offset="0.6292" style="stop-color:#A67F4B"/>
				<stop  offset="0.7584" style="stop-color:#D1A965"/>
				<stop  offset="0.9326" style="stop-color:#DEBC7D"/>
				<stop  offset="0.9944" style="stop-color:#DFB260"/>
			</linearGradient>
			<rect x="15.6" y="50.6" class="st15" width="187.2" height="116.9"/>
		</g>
		<g>
			<defs>
				<polygon id="SVGID_119_" points="151.5,150 154.5,150 154.5,149.2 151.5,149.2 151.5,147.4 154.9,147.4 154.9,146.6 
					150.7,146.6 150.7,152.6 155,152.6 155,151.8 151.5,151.8 				"/>
			</defs>
			<clipPath id="SVGID_25_">
				<use xlink:href="#SVGID_119_"  style="overflow:visible;"/>
			</clipPath>
			<linearGradient id="SVGID_26_" gradientUnits="userSpaceOnUse" x1="33.1856" y1="185.1011" x2="185.2171" y2="33.0696">
				<stop  offset="0.118" style="stop-color:#D1A965"/>
				<stop  offset="0.264" style="stop-color:#A67F4B"/>
				<stop  offset="0.4888" style="stop-color:#EAC07A"/>
				<stop  offset="0.6292" style="stop-color:#A67F4B"/>
				<stop  offset="0.7584" style="stop-color:#D1A965"/>
				<stop  offset="0.9326" style="stop-color:#DEBC7D"/>
				<stop  offset="0.9944" style="stop-color:#DFB260"/>
			</linearGradient>
			<rect x="15.6" y="50.6" class="st16" width="187.2" height="116.9"/>
		</g>
		<g>
			<defs>
				<rect id="SVGID_122_" x="146.6" y="146.6" width="0.9" height="6"/>
			</defs>
			<clipPath id="SVGID_27_">
				<use xlink:href="#SVGID_122_"  style="overflow:visible;"/>
			</clipPath>
			<linearGradient id="SVGID_28_" gradientUnits="userSpaceOnUse" x1="33.1856" y1="185.1011" x2="185.2171" y2="33.0696">
				<stop  offset="0.118" style="stop-color:#D1A965"/>
				<stop  offset="0.264" style="stop-color:#A67F4B"/>
				<stop  offset="0.4888" style="stop-color:#EAC07A"/>
				<stop  offset="0.6292" style="stop-color:#A67F4B"/>
				<stop  offset="0.7584" style="stop-color:#D1A965"/>
				<stop  offset="0.9326" style="stop-color:#DEBC7D"/>
				<stop  offset="0.9944" style="stop-color:#DFB260"/>
			</linearGradient>
			<rect x="15.6" y="50.6" class="st17" width="187.2" height="116.9"/>
		</g>
		<g>
			<defs>
				<path id="SVGID_125_" d="M141.8,149.2c-0.8-0.2-1.5-0.4-1.5-1c0-0.6,0.5-0.9,1.4-0.9c0.5,0,1.1,0.2,1.5,0.5l0.1,0.1l0.3-0.7
					l-0.1-0.1c-0.5-0.3-1.2-0.5-1.9-0.5c-1.7,0-2.2,0.9-2.2,1.7c0,1.2,1.1,1.5,2.1,1.7c0.8,0.2,1.5,0.4,1.5,1c0,0.6-0.5,0.9-1.4,0.9
					c-0.7,0-1.4-0.3-1.8-0.7l-0.1-0.1l-0.4,0.7l0.1,0.1c0.5,0.5,1.3,0.8,2.2,0.8c1.7,0,2.3-0.9,2.3-1.7
					C143.9,149.7,142.8,149.5,141.8,149.2z"/>
			</defs>
			<clipPath id="SVGID_29_">
				<use xlink:href="#SVGID_125_"  style="overflow:visible;"/>
			</clipPath>
			<linearGradient id="SVGID_30_" gradientUnits="userSpaceOnUse" x1="33.1856" y1="185.1011" x2="185.2171" y2="33.0696">
				<stop  offset="0.118" style="stop-color:#D1A965"/>
				<stop  offset="0.264" style="stop-color:#A67F4B"/>
				<stop  offset="0.4888" style="stop-color:#EAC07A"/>
				<stop  offset="0.6292" style="stop-color:#A67F4B"/>
				<stop  offset="0.7584" style="stop-color:#D1A965"/>
				<stop  offset="0.9326" style="stop-color:#DEBC7D"/>
				<stop  offset="0.9944" style="stop-color:#DFB260"/>
			</linearGradient>
			<rect x="15.6" y="50.6" class="st18" width="187.2" height="116.9"/>
		</g>
		<g>
			<defs>
				<path id="SVGID_128_" d="M135.1,149.2c-0.8-0.2-1.5-0.4-1.5-1c0-0.6,0.5-0.9,1.4-0.9c0.5,0,1.1,0.2,1.5,0.5l0.1,0.1l0.3-0.7
					l-0.1-0.1c-0.5-0.3-1.2-0.5-1.9-0.5c-1.7,0-2.2,0.9-2.2,1.7c0,1.2,1.1,1.5,2.1,1.7c0.8,0.2,1.5,0.4,1.5,1c0,0.6-0.5,0.9-1.4,0.9
					c-0.7,0-1.4-0.3-1.8-0.7l-0.1-0.1l-0.4,0.7l0.1,0.1c0.5,0.5,1.3,0.8,2.2,0.8c1.7,0,2.3-0.9,2.3-1.7
					C137.2,149.7,136.1,149.5,135.1,149.2z"/>
			</defs>
			<clipPath id="SVGID_31_">
				<use xlink:href="#SVGID_128_"  style="overflow:visible;"/>
			</clipPath>
			<linearGradient id="SVGID_32_" gradientUnits="userSpaceOnUse" x1="33.1856" y1="185.1011" x2="185.2171" y2="33.0696">
				<stop  offset="0.118" style="stop-color:#D1A965"/>
				<stop  offset="0.264" style="stop-color:#A67F4B"/>
				<stop  offset="0.4888" style="stop-color:#EAC07A"/>
				<stop  offset="0.6292" style="stop-color:#A67F4B"/>
				<stop  offset="0.7584" style="stop-color:#D1A965"/>
				<stop  offset="0.9326" style="stop-color:#DEBC7D"/>
				<stop  offset="0.9944" style="stop-color:#DFB260"/>
			</linearGradient>
			<rect x="15.6" y="50.6" class="st19" width="187.2" height="116.9"/>
		</g>
		<g>
			<defs>
				<rect id="SVGID_131_" x="129.1" y="146.6" width="0.9" height="6"/>
			</defs>
			<clipPath id="SVGID_33_">
				<use xlink:href="#SVGID_131_"  style="overflow:visible;"/>
			</clipPath>
			<linearGradient id="SVGID_34_" gradientUnits="userSpaceOnUse" x1="33.1856" y1="185.1011" x2="185.2171" y2="33.0696">
				<stop  offset="0.118" style="stop-color:#D1A965"/>
				<stop  offset="0.264" style="stop-color:#A67F4B"/>
				<stop  offset="0.4888" style="stop-color:#EAC07A"/>
				<stop  offset="0.6292" style="stop-color:#A67F4B"/>
				<stop  offset="0.7584" style="stop-color:#D1A965"/>
				<stop  offset="0.9326" style="stop-color:#DEBC7D"/>
				<stop  offset="0.9944" style="stop-color:#DFB260"/>
			</linearGradient>
			<rect x="15.6" y="50.6" class="st20" width="187.2" height="116.9"/>
		</g>
		<g>
			<defs>
				<polygon id="SVGID_134_" points="121.8,147.4 123.8,147.4 123.8,152.6 124.7,152.6 124.7,147.4 126.7,147.4 126.7,146.6 
					121.8,146.6 				"/>
			</defs>
			<clipPath id="SVGID_35_">
				<use xlink:href="#SVGID_134_"  style="overflow:visible;"/>
			</clipPath>
			<linearGradient id="SVGID_36_" gradientUnits="userSpaceOnUse" x1="33.1856" y1="185.1011" x2="185.2171" y2="33.0696">
				<stop  offset="0.118" style="stop-color:#D1A965"/>
				<stop  offset="0.264" style="stop-color:#A67F4B"/>
				<stop  offset="0.4888" style="stop-color:#EAC07A"/>
				<stop  offset="0.6292" style="stop-color:#A67F4B"/>
				<stop  offset="0.7584" style="stop-color:#D1A965"/>
				<stop  offset="0.9326" style="stop-color:#DEBC7D"/>
				<stop  offset="0.9944" style="stop-color:#DFB260"/>
			</linearGradient>
			<rect x="15.6" y="50.6" class="st21" width="187.2" height="116.9"/>
		</g>
		<g>
			<defs>
				<path id="SVGID_137_" d="M117.3,146.6l-2.7,6h0.9l0.7-1.5h3l0.7,1.5h0.9l-2.7-6H117.3z M118.8,150.3h-2.4l1.2-2.6L118.8,150.3z"
					/>
			</defs>
			<clipPath id="SVGID_37_">
				<use xlink:href="#SVGID_137_"  style="overflow:visible;"/>
			</clipPath>
			<linearGradient id="SVGID_38_" gradientUnits="userSpaceOnUse" x1="33.1856" y1="185.1011" x2="185.2171" y2="33.0696">
				<stop  offset="0.118" style="stop-color:#D1A965"/>
				<stop  offset="0.264" style="stop-color:#A67F4B"/>
				<stop  offset="0.4888" style="stop-color:#EAC07A"/>
				<stop  offset="0.6292" style="stop-color:#A67F4B"/>
				<stop  offset="0.7584" style="stop-color:#D1A965"/>
				<stop  offset="0.9326" style="stop-color:#DEBC7D"/>
				<stop  offset="0.9944" style="stop-color:#DFB260"/>
			</linearGradient>
			<rect x="15.6" y="50.6" class="st22" width="187.2" height="116.9"/>
		</g>
		<g>
			<defs>
				<polygon id="SVGID_140_" points="117.6,145.8 118.4,146.4 119.3,146.4 118,145.1 117.3,145.1 116,146.4 116.9,146.4 				"/>
			</defs>
			<clipPath id="SVGID_39_">
				<use xlink:href="#SVGID_140_"  style="overflow:visible;"/>
			</clipPath>
			<linearGradient id="SVGID_40_" gradientUnits="userSpaceOnUse" x1="33.1856" y1="185.1011" x2="185.2171" y2="33.0696">
				<stop  offset="0.118" style="stop-color:#D1A965"/>
				<stop  offset="0.264" style="stop-color:#A67F4B"/>
				<stop  offset="0.4888" style="stop-color:#EAC07A"/>
				<stop  offset="0.6292" style="stop-color:#A67F4B"/>
				<stop  offset="0.7584" style="stop-color:#D1A965"/>
				<stop  offset="0.9326" style="stop-color:#DEBC7D"/>
				<stop  offset="0.9944" style="stop-color:#DFB260"/>
			</linearGradient>
			<rect x="15.6" y="50.6" class="st23" width="187.2" height="116.9"/>
		</g>
		<g>
			<defs>
				<path id="SVGID_143_" d="M110.6,146.6h-2.3v6h0.9v-1.8h1.4c1.5,0,2.5-0.8,2.5-2.1C113.1,147.4,112.1,146.6,110.6,146.6z
					 M109.2,147.4h1.4c0.7,0,1.6,0.2,1.6,1.3c0,1.1-0.9,1.3-1.6,1.3h-1.4V147.4z"/>
			</defs>
			<clipPath id="SVGID_41_">
				<use xlink:href="#SVGID_143_"  style="overflow:visible;"/>
			</clipPath>
			<linearGradient id="SVGID_42_" gradientUnits="userSpaceOnUse" x1="33.1856" y1="185.1011" x2="185.2171" y2="33.0696">
				<stop  offset="0.118" style="stop-color:#D1A965"/>
				<stop  offset="0.264" style="stop-color:#A67F4B"/>
				<stop  offset="0.4888" style="stop-color:#EAC07A"/>
				<stop  offset="0.6292" style="stop-color:#A67F4B"/>
				<stop  offset="0.7584" style="stop-color:#D1A965"/>
				<stop  offset="0.9326" style="stop-color:#DEBC7D"/>
				<stop  offset="0.9944" style="stop-color:#DFB260"/>
			</linearGradient>
			<rect x="15.6" y="50.6" class="st24" width="187.2" height="116.9"/>
		</g>
		<g>
			<defs>
				<polygon id="SVGID_146_" points="100.4,151 97,146.7 96.9,146.6 96.2,146.6 96.2,152.6 97.1,152.6 97.1,148.2 100.6,152.6 
					101.3,152.6 101.3,146.6 100.4,146.6 				"/>
			</defs>
			<clipPath id="SVGID_43_">
				<use xlink:href="#SVGID_146_"  style="overflow:visible;"/>
			</clipPath>
			<linearGradient id="SVGID_44_" gradientUnits="userSpaceOnUse" x1="33.1856" y1="185.1011" x2="185.2171" y2="33.0696">
				<stop  offset="0.118" style="stop-color:#D1A965"/>
				<stop  offset="0.264" style="stop-color:#A67F4B"/>
				<stop  offset="0.4888" style="stop-color:#EAC07A"/>
				<stop  offset="0.6292" style="stop-color:#A67F4B"/>
				<stop  offset="0.7584" style="stop-color:#D1A965"/>
				<stop  offset="0.9326" style="stop-color:#DEBC7D"/>
				<stop  offset="0.9944" style="stop-color:#DFB260"/>
			</linearGradient>
			<rect x="15.6" y="50.6" class="st25" width="187.2" height="116.9"/>
		</g>
		<g>
			<defs>
				<path id="SVGID_149_" d="M90.5,146.6l-2.7,6h0.9l0.7-1.5h3l0.7,1.5H94l-2.7-6H90.5z M92,150.3h-2.4l1.2-2.6L92,150.3z"/>
			</defs>
			<clipPath id="SVGID_45_">
				<use xlink:href="#SVGID_149_"  style="overflow:visible;"/>
			</clipPath>
			<linearGradient id="SVGID_46_" gradientUnits="userSpaceOnUse" x1="33.1856" y1="185.1011" x2="185.2171" y2="33.0696">
				<stop  offset="0.118" style="stop-color:#D1A965"/>
				<stop  offset="0.264" style="stop-color:#A67F4B"/>
				<stop  offset="0.4888" style="stop-color:#EAC07A"/>
				<stop  offset="0.6292" style="stop-color:#A67F4B"/>
				<stop  offset="0.7584" style="stop-color:#D1A965"/>
				<stop  offset="0.9326" style="stop-color:#DEBC7D"/>
				<stop  offset="0.9944" style="stop-color:#DFB260"/>
			</linearGradient>
			<rect x="15.6" y="50.6" class="st26" width="187.2" height="116.9"/>
		</g>
		<g>
			<defs>
				<path id="SVGID_152_" d="M84,149.2c-0.8-0.2-1.5-0.4-1.5-1c0-0.6,0.5-0.9,1.4-0.9c0.5,0,1.1,0.2,1.5,0.5l0.1,0.1l0.3-0.7
					l-0.1-0.1c-0.5-0.3-1.2-0.5-1.9-0.5c-1.7,0-2.2,0.9-2.2,1.7c0,1.2,1.1,1.5,2.1,1.7c0.8,0.2,1.5,0.4,1.5,1c0,0.6-0.5,0.9-1.4,0.9
					c-0.7,0-1.4-0.3-1.8-0.7l-0.1-0.1l-0.4,0.7l0.1,0.1c0.5,0.5,1.3,0.8,2.2,0.8c1.7,0,2.3-0.9,2.3-1.7
					C86,149.7,84.9,149.5,84,149.2z"/>
			</defs>
			<clipPath id="SVGID_47_">
				<use xlink:href="#SVGID_152_"  style="overflow:visible;"/>
			</clipPath>
			<linearGradient id="SVGID_48_" gradientUnits="userSpaceOnUse" x1="33.1856" y1="185.1011" x2="185.2171" y2="33.0696">
				<stop  offset="0.118" style="stop-color:#D1A965"/>
				<stop  offset="0.264" style="stop-color:#A67F4B"/>
				<stop  offset="0.4888" style="stop-color:#EAC07A"/>
				<stop  offset="0.6292" style="stop-color:#A67F4B"/>
				<stop  offset="0.7584" style="stop-color:#D1A965"/>
				<stop  offset="0.9326" style="stop-color:#DEBC7D"/>
				<stop  offset="0.9944" style="stop-color:#DFB260"/>
			</linearGradient>
			<rect x="15.6" y="50.6" class="st27" width="187.2" height="116.9"/>
		</g>
		<g>
			<defs>
				<rect id="SVGID_155_" x="77.9" y="146.6" width="0.9" height="6"/>
			</defs>
			<clipPath id="SVGID_49_">
				<use xlink:href="#SVGID_155_"  style="overflow:visible;"/>
			</clipPath>
			<linearGradient id="SVGID_50_" gradientUnits="userSpaceOnUse" x1="33.1856" y1="185.1011" x2="185.2171" y2="33.0696">
				<stop  offset="0.118" style="stop-color:#D1A965"/>
				<stop  offset="0.264" style="stop-color:#A67F4B"/>
				<stop  offset="0.4888" style="stop-color:#EAC07A"/>
				<stop  offset="0.6292" style="stop-color:#A67F4B"/>
				<stop  offset="0.7584" style="stop-color:#D1A965"/>
				<stop  offset="0.9326" style="stop-color:#DEBC7D"/>
				<stop  offset="0.9944" style="stop-color:#DFB260"/>
			</linearGradient>
			<rect x="15.6" y="50.6" class="st28" width="187.2" height="116.9"/>
		</g>
		<g>
			<defs>
				<polygon id="SVGID_158_" points="70.7,147.4 72.7,147.4 72.7,152.6 73.5,152.6 73.5,147.4 75.6,147.4 75.6,146.6 70.7,146.6 
									"/>
			</defs>
			<clipPath id="SVGID_51_">
				<use xlink:href="#SVGID_158_"  style="overflow:visible;"/>
			</clipPath>
			<linearGradient id="SVGID_52_" gradientUnits="userSpaceOnUse" x1="33.1856" y1="185.1011" x2="185.2171" y2="33.0696">
				<stop  offset="0.118" style="stop-color:#D1A965"/>
				<stop  offset="0.264" style="stop-color:#A67F4B"/>
				<stop  offset="0.4888" style="stop-color:#EAC07A"/>
				<stop  offset="0.6292" style="stop-color:#A67F4B"/>
				<stop  offset="0.7584" style="stop-color:#D1A965"/>
				<stop  offset="0.9326" style="stop-color:#DEBC7D"/>
				<stop  offset="0.9944" style="stop-color:#DFB260"/>
			</linearGradient>
			<rect x="15.6" y="50.6" class="st29" width="187.2" height="116.9"/>
		</g>
		<g>
			<defs>
				<path id="SVGID_161_" d="M68.8,148.7c0-1.3-0.9-2.1-2.5-2.1h-2.3v6h0.9v-1.8h1.4c0.1,0,0.3,0,0.4,0l1.3,1.8h1l-1.4-2
					C68.4,150.3,68.8,149.6,68.8,148.7z M64.9,147.4h1.4c0.7,0,1.6,0.2,1.6,1.3c0,0.8-0.6,1.3-1.6,1.3h-1.4V147.4z"/>
			</defs>
			<clipPath id="SVGID_53_">
				<use xlink:href="#SVGID_161_"  style="overflow:visible;"/>
			</clipPath>
			<linearGradient id="SVGID_54_" gradientUnits="userSpaceOnUse" x1="33.1856" y1="185.1011" x2="185.2171" y2="33.0696">
				<stop  offset="0.118" style="stop-color:#D1A965"/>
				<stop  offset="0.264" style="stop-color:#A67F4B"/>
				<stop  offset="0.4888" style="stop-color:#EAC07A"/>
				<stop  offset="0.6292" style="stop-color:#A67F4B"/>
				<stop  offset="0.7584" style="stop-color:#D1A965"/>
				<stop  offset="0.9326" style="stop-color:#DEBC7D"/>
				<stop  offset="0.9944" style="stop-color:#DFB260"/>
			</linearGradient>
			<rect x="15.6" y="50.6" class="st30" width="187.2" height="116.9"/>
		</g>
		<g>
			<defs>
				<path id="SVGID_164_" d="M58.3,146.6l-2.7,6h0.9l0.7-1.5h3l0.7,1.5h0.9l-2.7-6H58.3z M59.9,150.3h-2.4l1.2-2.6L59.9,150.3z"/>
			</defs>
			<clipPath id="SVGID_55_">
				<use xlink:href="#SVGID_164_"  style="overflow:visible;"/>
			</clipPath>
			<linearGradient id="SVGID_56_" gradientUnits="userSpaceOnUse" x1="33.1856" y1="185.1011" x2="185.2171" y2="33.0696">
				<stop  offset="0.118" style="stop-color:#D1A965"/>
				<stop  offset="0.264" style="stop-color:#A67F4B"/>
				<stop  offset="0.4888" style="stop-color:#EAC07A"/>
				<stop  offset="0.6292" style="stop-color:#A67F4B"/>
				<stop  offset="0.7584" style="stop-color:#D1A965"/>
				<stop  offset="0.9326" style="stop-color:#DEBC7D"/>
				<stop  offset="0.9944" style="stop-color:#DFB260"/>
			</linearGradient>
			<rect x="15.6" y="50.6" class="st31" width="187.2" height="116.9"/>
		</g>
	</g>
	<g class="st13">
		<path class="st14" d="M58.3,146.6l-2.7,6h0.9l0.7-1.5h3l0.7,1.5h0.9l-2.7-6H58.3z M59.9,150.3h-2.4l1.2-2.6L59.9,150.3z"/>
		<path class="st14" d="M68.8,148.7c0-1.3-0.9-2.1-2.5-2.1h-2.3v6h0.9v-1.8h1.4c0.1,0,0.3,0,0.4,0l1.3,1.8h1l-1.4-2
			C68.4,150.3,68.8,149.6,68.8,148.7z M64.9,147.4h1.4c0.7,0,1.6,0.2,1.6,1.3c0,0.8-0.6,1.3-1.6,1.3h-1.4V147.4z"/>
		<polygon class="st14" points="70.7,147.4 72.7,147.4 72.7,152.6 73.5,152.6 73.5,147.4 75.6,147.4 75.6,146.6 70.7,146.6 		"/>
		<rect x="77.9" y="146.6" class="st14" width="0.9" height="6"/>
		<path class="st14" d="M84,149.2c-0.8-0.2-1.5-0.4-1.5-1c0-0.6,0.5-0.9,1.4-0.9c0.5,0,1.1,0.2,1.5,0.5l0.1,0.1l0.3-0.7l-0.1-0.1
			c-0.5-0.3-1.2-0.5-1.9-0.5c-1.7,0-2.2,0.9-2.2,1.7c0,1.2,1.1,1.5,2.1,1.7c0.8,0.2,1.5,0.4,1.5,1c0,0.6-0.5,0.9-1.4,0.9
			c-0.7,0-1.4-0.3-1.8-0.7l-0.1-0.1l-0.4,0.7l0.1,0.1c0.5,0.5,1.3,0.8,2.2,0.8c1.7,0,2.3-0.9,2.3-1.7C86,149.7,84.9,149.5,84,149.2z
			"/>
		<path class="st14" d="M90.5,146.6l-2.7,6h0.9l0.7-1.5h3l0.7,1.5H94l-2.7-6H90.5z M92,150.3h-2.4l1.2-2.6L92,150.3z"/>
		<polygon class="st14" points="100.4,151 97,146.7 96.9,146.6 96.2,146.6 96.2,152.6 97.1,152.6 97.1,148.2 100.6,152.6 
			101.3,152.6 101.3,146.6 100.4,146.6 		"/>
		<path class="st14" d="M110.6,146.6h-2.3v6h0.9v-1.8h1.4c1.5,0,2.5-0.8,2.5-2.1C113.1,147.4,112.1,146.6,110.6,146.6z M109.2,147.4
			h1.4c0.7,0,1.6,0.2,1.6,1.3c0,1.1-0.9,1.3-1.6,1.3h-1.4V147.4z"/>
		<polygon class="st14" points="117.6,145.8 118.4,146.4 119.3,146.4 118,145.1 117.3,145.1 116,146.4 116.9,146.4 		"/>
		<path class="st14" d="M117.2,146.6l-2.7,6h0.9l0.7-1.5h3l0.7,1.5h0.9l-2.7-6H117.2z M118.8,150.3h-2.4l1.2-2.6L118.8,150.3z"/>
		<polygon class="st14" points="121.8,147.4 123.8,147.4 123.8,152.6 124.7,152.6 124.7,147.4 126.7,147.4 126.7,146.6 121.8,146.6 
					"/>
		<rect x="129.1" y="146.6" class="st14" width="0.9" height="6"/>
		<path class="st14" d="M135.1,149.2c-0.8-0.2-1.5-0.4-1.5-1c0-0.6,0.5-0.9,1.4-0.9c0.5,0,1.1,0.2,1.5,0.5l0.1,0.1l0.3-0.7l-0.1-0.1
			c-0.5-0.3-1.2-0.5-1.9-0.5c-1.7,0-2.2,0.9-2.2,1.7c0,1.2,1.1,1.5,2.1,1.7c0.8,0.2,1.5,0.4,1.5,1c0,0.6-0.5,0.9-1.4,0.9
			c-0.7,0-1.4-0.3-1.8-0.7l-0.1-0.1l-0.4,0.7l0.1,0.1c0.5,0.5,1.3,0.8,2.2,0.8c1.7,0,2.3-0.9,2.3-1.7
			C137.2,149.7,136.1,149.5,135.1,149.2z"/>
		<path class="st14" d="M141.8,149.2c-0.8-0.2-1.5-0.4-1.5-1c0-0.6,0.5-0.9,1.4-0.9c0.5,0,1.1,0.2,1.5,0.5l0.1,0.1l0.3-0.7l-0.1-0.1
			c-0.5-0.3-1.2-0.5-1.9-0.5c-1.7,0-2.2,0.9-2.2,1.7c0,1.2,1.1,1.5,2.1,1.7c0.8,0.2,1.5,0.4,1.5,1c0,0.6-0.5,0.9-1.4,0.9
			c-0.7,0-1.4-0.3-1.8-0.7l-0.1-0.1l-0.4,0.7l0.1,0.1c0.5,0.5,1.3,0.8,2.2,0.8c1.7,0,2.3-0.9,2.3-1.7
			C143.9,149.7,142.8,149.5,141.8,149.2z"/>
		<rect x="146.6" y="146.6" class="st14" width="0.9" height="6"/>
		<polygon class="st14" points="151.5,149.9 154.5,149.9 154.5,149.2 151.5,149.2 151.5,147.4 154.9,147.4 154.9,146.6 150.7,146.6 
			150.7,152.6 155,152.6 155,151.8 151.5,151.8 		"/>
		<path class="st14" d="M161.3,150.6c0.8-0.3,1.2-1,1.2-1.9c0-1.3-0.9-2.1-2.5-2.1h-2.3v6h0.9v-1.8h1.4c0.1,0,0.3,0,0.4,0l1.3,1.8h1
			L161.3,150.6z M158.7,147.4h1.4c0.7,0,1.6,0.2,1.6,1.3c0,0.8-0.6,1.3-1.6,1.3h-1.4V147.4z"/>
	</g>
</g>
</svg>
